<?xml version="1.0" encoding="UTF-8" standalone="no"?>
<!-- Created with Inkscape (http://www.inkscape.org/) -->

<svg
   xmlns:dc="http://purl.org/dc/elements/1.1/"
   xmlns:cc="http://creativecommons.org/ns#"
   xmlns:rdf="http://www.w3.org/1999/02/22-rdf-syntax-ns#"
   xmlns:svg="http://www.w3.org/2000/svg"
   xmlns="http://www.w3.org/2000/svg"
   xmlns:sodipodi="http://sodipodi.sourceforge.net/DTD/sodipodi-0.dtd"
   xmlns:inkscape="http://www.inkscape.org/namespaces/inkscape"
   width="990"
   height="765"
   id="svg2"
   version="1.1"
   inkscape:version="0.48.2 r9819"
   sodipodi:docname="sutro reduction.svg">
  <defs
     id="defs4" />
  <sodipodi:namedview
     id="base"
     pagecolor="#ffffff"
     bordercolor="#666666"
     borderopacity="1.0"
     inkscape:pageopacity="0.0"
     inkscape:pageshadow="2"
     inkscape:zoom="1.3456222"
     inkscape:cx="508.96123"
     inkscape:cy="373.96502"
     inkscape:document-units="px"
     inkscape:current-layer="layer1"
     showgrid="false"
     inkscape:window-width="1680"
     inkscape:window-height="948"
     inkscape:window-x="0"
     inkscape:window-y="0"
     inkscape:window-maximized="1" />
  <metadata
     id="metadata7">
    <rdf:RDF>
      <cc:Work
         rdf:about="">
        <dc:format>image/svg+xml</dc:format>
        <dc:type
           rdf:resource="http://purl.org/dc/dcmitype/StillImage" />
        <dc:title></dc:title>
      </cc:Work>
    </rdf:RDF>
  </metadata>
  <g
     inkscape:label="Layer 1"
     inkscape:groupmode="layer"
     id="layer1"
     transform="translate(0,-287.36218)">
    <g
       id="g4036"
       transform="matrix(1.1222034,0,0,1.1108925,256.858,211.24248)">
      <path
         id="path3154"
         d="m -4.43072,663.59936 c 0.33992,-0.55 1.04148,-1 1.55902,-1 0.51754,0 0.94098,0.45 0.94098,1 0,0.55 -0.70156,1 -1.55902,1 -0.85746,0 -1.2809,-0.45 -0.94098,-1 z"
         style="fill:#04caf7"
         inkscape:connector-curvature="0" />
      <path
         id="path3152"
         d="m 99.06928,664.13416 c 0,-0.25587 1.39662,-2.05587 3.10359,-4 2.48924,-2.83509 3.8254,-3.53406 6.75,-3.53106 4.80819,0.005 12.07184,4.34371 12.1311,7.24626 0.008,0.4125 -4.93469,0.75 -10.98469,0.75 -6.05,0 -11,-0.20934 -11,-0.4652 z"
         style="fill:#04caf7"
         inkscape:connector-curvature="0" />
      <path
         id="path3150"
         d="m 79.29845,652.41186 c 0.2177,-0.65313 0.93051,-1.36573 1.58401,-1.58356 0.73075,-0.24358 0.95424,0.21359 0.58051,1.1875 -0.69752,1.81771 -2.76448,2.19592 -2.16452,0.39606 z"
         style="fill:#04caf7"
         inkscape:connector-curvature="0" />
      <path
         id="path3148"
         d="m 1.76245,646.9592 c -0.81298,-0.81298 1.09231,-4.35984 2.34201,-4.35984 0.53065,0 0.96482,0.6199 0.96482,1.37756 0,1.66192 -2.43298,3.85612 -3.30683,2.98228 z"
         style="fill:#04caf7"
         inkscape:connector-curvature="0" />
      <path
         id="path3146"
         d="m 73.06928,623.71739 c 0,-0.55 0.45,-1.27811 1,-1.61803 0.55,-0.33992 1,-0.16803 1,0.38197 0,0.55 -0.45,1.27811 -1,1.61803 -0.55,0.33992 -1,0.16803 -1,-0.38197 z"
         style="fill:#04caf7"
         inkscape:connector-curvature="0" />
      <path
         id="path3144"
         d="m 179.64114,570.57154 c -2.49308,-1.88636 -5.12014,-2.97218 -7.19098,-2.97218 -3.8766,0 -4.97065,-1.26738 -2.89007,-3.34795 0.83005,-0.83006 1.50919,-2.45546 1.50919,-3.61201 0,-1.15654 0.66394,-2.35759 1.47543,-2.66898 1.85744,-0.71277 4.69855,-6.28054 3.88035,-7.60441 -0.73207,-1.18452 -22.53685,-0.022 -26.33837,1.40417 -1.38458,0.51945 -4.09241,2.75145 -6.01741,4.96001 -3.49431,4.00903 -3.50731,4.01382 -8,2.95102 -2.475,-0.58549 -6.66043,-1.32444 -9.30095,-1.6421 -3.74611,-0.45067 -4.98659,-1.06583 -5.64583,-2.79976 -0.46468,-1.2222 -1.45425,-2.70896 -2.19904,-3.30391 -1.28895,-1.02962 -9.87447,-2.16987 -21.85418,-2.90246 -3.025,-0.18499 -7.403,-0.64121 -9.7289,-1.01382 -3.11728,-0.49939 -4.88234,-0.24932 -6.71481,0.95136 -1.36726,0.89586 -2.70637,1.62884 -2.97579,1.62884 -1.57041,0 -2.39373,-11.5847 -3.74429,-52.68497 -0.89217,-27.1507 -0.90361,-36.52889 -0.0458,-37.56247 1.60217,-1.93049 12.21866,-1.46067 13.73105,0.60765 1.00291,1.37157 1.57583,1.37235 5.5372,0.008 2.43021,-0.83727 5.56988,-1.29205 6.97705,-1.01061 1.40718,0.28143 3.19082,0.1209 3.96366,-0.35674 0.77284,-0.47764 1.87664,-0.56532 2.4529,-0.19485 2.20592,1.41816 10.04059,0.99511 11.8843,-0.64171 1.27282,-1.12999 3.74196,-1.63559 8.04401,-1.64716 8.29786,-0.0223 12.04629,-2.29674 11.07481,-6.71989 -0.63685,-2.89954 -0.52696,-3.04363 1.95883,-2.56844 1.44845,0.27689 2.87435,0.11378 3.16868,-0.36246 1.08798,-1.76087 4.4171,-0.90611 4.4171,1.13365 0,1.31306 -0.66667,2 -1.94098,2 -2.23481,0 -3.56517,1.56915 -2.09875,2.47545 0.54609,0.3375 2.24093,0.79996 3.76631,1.0277 1.52538,0.22773 4.44311,0.71367 6.48383,1.07987 2.42938,0.43594 5.04309,0.13259 7.57038,-0.87863 2.3243,-0.93 4.40729,-1.20618 5.2357,-0.6942 0.7629,0.4715 2.11141,0.45654 3.02721,-0.0336 0.90831,-0.48611 5.09471,-0.79221 9.30311,-0.68022 l 7.65165,0.20361 7.7e-4,60.25 c 6.1e-4,47.54857 -0.26275,60.24414 -1.24923,60.22218 -0.6875,-0.0153 -3.01766,-1.3653 -5.17814,-3 z"
         style="fill:#04caf7"
         inkscape:connector-curvature="0" />
      <path
         id="path3142"
         d="m 119.24216,570.94017 c 0.19498,-1.01244 1.02335,-1.84081 1.84082,-1.84081 2.1435,0 1.8339,2.90567 -0.35451,3.32712 -1.3364,0.25736 -1.74367,-0.14991 -1.48631,-1.48631 z"
         style="fill:#04caf7"
         inkscape:connector-curvature="0" />
      <path
         id="path3140"
         d="m -66.6965,551.57005 c -3.0292,-2.75549 -3.86227,-2.98082 -11.5,-3.11058 -11.88163,-0.20185 -15.29699,-0.46846 -17.38257,-1.35694 -3.02491,-1.28864 -19.34187,-1.47626 -26.50713,-0.30478 -3.66051,0.59847 -7.48551,0.72722 -8.5,0.28611 -1.01448,-0.44111 -2.18202,-0.73058 -2.59452,-0.64326 -0.4125,0.0873 -0.75,-20.96135 -0.75,-46.77482 l 0,-46.93358 2.75,-0.32234 c 1.5125,-0.1773 4.06821,0.44449 5.67935,1.38175 1.61114,0.93725 3.29864,1.47586 3.75,1.19691 1.34836,-0.83333 0.92803,-4.38916 -0.51884,-4.38916 -0.73671,0 -1.89202,-1.2127 -2.56735,-2.69489 -1.09585,-2.40512 -0.97871,-2.8924 1.08948,-4.53178 3.68511,-2.92106 7.81736,-4.92922 7.81736,-3.79901 0,0.56412 -0.47656,1.02568 -1.05902,1.02568 -0.58246,0 -0.7498,0.50031 -0.37188,1.1118 0.37792,0.6115 0.067,1.5115 -0.69099,2 -1.15588,0.74497 -1.13622,1.04413 0.12189,1.85514 1.14432,0.73766 2.36265,-0.004 5.13808,-3.12819 2.19926,-2.47557 4.10478,-3.80669 4.81817,-3.36579 0.64905,0.40114 0.93854,1.35882 0.64331,2.12819 -0.29524,0.76937 0.0116,1.41316 0.68182,1.43065 0.70175,0.0183 0.46954,0.60025 -0.54748,1.37202 -1.63752,1.24264 -1.56473,1.41869 1,2.41826 10.51954,4.09987 18.87425,6.34092 21.84311,5.85914 2.18584,-0.35472 3.6988,-0.0538 4.48351,0.8917 1.5453,1.86198 5.36214,1.82766 6.93068,-0.0623 1.08999,-1.31336 1.57866,-1.28705 4.13433,0.22262 2.79181,1.64917 3.05384,1.62778 7.13635,-0.5826 3.964,-2.14622 4.4645,-2.19867 7.73812,-0.8109 2.17962,0.92399 4.57664,3.19013 6.3539,6.00697 l 2.85391,4.52324 5.07501,-2.2242 c 3.47163,-1.52151 5.57137,-3.20775 6.64609,-5.33729 1.9047,-3.77413 7.60261,-5.33139 9.58541,-2.61974 0.65025,0.88927 1.69677,1.29888 2.32559,0.91024 0.62883,-0.38864 2.22197,0.37203 3.54032,1.69038 3.03842,3.03842 7.80632,2.60111 10.11874,-0.92809 0.87389,-1.33373 2.01912,-2.15906 2.54496,-1.83408 1.81592,1.12228 0.81745,8.47283 -1.15092,8.47283 -0.49115,0 -0.89301,-0.86091 -0.89301,-1.91314 0,-1.71067 -0.31747,-1.7933 -3,-0.78076 -3.67432,1.3869 -3.74567,2.15921 -0.4019,4.35013 2.08214,1.36428 2.97309,1.46815 4.48643,0.52305 2.46249,-1.53785 2.91547,-1.48802 2.91547,0.32072 0,0.825 0.3949,1.5 0.87756,1.5 0.48265,0 1.43775,-0.675 2.12244,-1.5 0.68469,-0.825 2.51323,-1.5 4.06343,-1.5 1.55019,0 3.11561,-0.48068 3.4787,-1.06817 0.3631,-0.5875 1.21796,-0.85413 1.8997,-0.59252 0.68175,0.26161 1.86997,0.086 2.64049,-0.39019 1.11574,-0.68956 1.14818,-1.11862 0.15932,-2.10748 -2.29911,-2.29911 -1.2677,-3.40554 3.36248,-3.60705 4.38608,-0.19089 4.57584,-0.0877 4.00711,2.17826 -0.67687,2.69685 1.78409,4.33388 3.889,2.58696 1.14208,-0.94784 4.53294,-1.57827 13.25411,-2.4642 1.78989,-0.18182 3.47789,0.0311 3.75112,0.47323 0.27323,0.4421 0.75596,5.89505 1.07273,12.11767 0.31676,6.22262 0.78465,11.65156 1.03974,12.0643 0.25509,0.41275 -0.18084,2.00117 -0.96874,3.52982 -0.7879,1.52865 -1.73696,7.27937 -2.10902,12.77937 -1.58759,23.46859 -3.62973,44.34569 -4.79167,48.98598 l -1.2485,4.98599 -9,0.26728 c -4.95,0.147 -12.825,0.43606 -17.5,0.64235 -4.675,0.20629 -11.2,-0.003 -14.5,-0.46517 -3.3,-0.46214 -12.525,-0.8198 -20.5,-0.7948 -21.20359,0.0665 -21.19165,0.0668 -25.01547,-0.63787 -2.91355,-0.53689 -3.9925,-0.20572 -6.30152,1.93421 -1.53233,1.42012 -3.10037,2.56884 -3.48453,2.55272 -0.38416,-0.0161 -2.16808,-1.36613 -3.96426,-3 z"
         style="fill:#04caf7"
         inkscape:connector-curvature="0" />
      <path
         id="path3138"
         d="m 52.56928,551.54275 c -2.84396,-1.36791 -5.12033,-1.75067 -7.87646,-1.32442 l -3.87646,0.59953 0.6862,-13.85927 c 0.86915,-17.55432 2.37073,-30.41818 3.7438,-32.07263 1.36429,-1.64387 13.99757,-1.63054 18.78589,0.0198 4.33153,1.49292 4.667,2.92062 5.56732,23.69356 0.80853,18.65504 0.13583,21.58322 -4.7346,20.60914 -2.51662,-0.50333 -3.68587,-0.13331 -5.72883,1.81291 l -2.56686,2.4453 -4,-1.92393 z"
         style="fill:#04caf7"
         inkscape:connector-curvature="0" />
      <path
         id="path3136"
         d="m 46.49046,490.14129 c -0.36623,-1.45915 0.0805,-7.13279 0.99262,-12.60807 1.68263,-10.1 3.39579,-16.24299 3.52281,-12.63201 0.0349,0.99104 1.04181,3.50193 2.23766,5.57977 l 2.17427,3.77788 4.00442,-3.88616 c 3.64926,-3.54148 4.09584,-3.72594 5.03524,-2.07976 0.56695,0.99351 1.21598,6.24619 1.44228,11.67261 0.4475,10.73019 0.0743,11.58959 -5.0453,11.61847 -3.0697,0.0173 -4.64677,-2.20566 -4.24577,-5.98469 0.34942,-3.293 -0.54918,-7.112 -1.5307,-6.50538 -0.42787,0.26443 -0.77794,2.7744 -0.77794,5.5777 0,5.64806 -0.49597,6.48127 -4.43725,7.4544 -2.34102,0.57802 -2.79639,0.31001 -3.37234,-1.98476 z"
         style="fill:#04caf7"
         inkscape:connector-curvature="0" />
      <path
         id="path3134"
         d="m 125.56928,453.59933 c 0.33992,-0.55 0.81648,-1 1.05902,-1 0.24254,0 0.44098,0.45 0.44098,1 0,0.55 -0.47656,1 -1.05902,1 -0.58246,0 -0.7809,-0.45 -0.44098,-1 z"
         style="fill:#04caf7"
         inkscape:connector-curvature="0" />
      <path
         sodipodi:nodetypes="sssssssssssssssssssssssssssscsscssssssssssssssssscscssssssssssssssssssssssssssssscsssssssssssssssscsssssssssscsscssssssssssccssccssssscsscccccccscssssscssssssssssscssssssssssssssssscsssccsssscsssscsscsccsscsssssssssscssssscsssssscssscssssssssssssscssssssscsscccssssccsssssscccccsssssssssssscss"
         style="fill:#029de7"
         d="m -4.19739,662.47527 c 0.67834,-0.68342 1.48524,-0.99067 1.79313,-0.68278 0.30789,0.30789 -0.24711,0.86705 -1.23333,1.24258 -1.4252,0.54268 -1.54006,0.42782 -0.5598,-0.5598 z m 54.26667,-9.75788 c 0,-0.55 0.45,-1.27811 1,-1.61803 0.55,-0.33992 1,-0.16803 1,0.38197 0,0.55 -0.45,1.27811 -1,1.61803 -0.55,0.33992 -1,0.16803 -1,-0.38197 z m -78,-6.37314 c 0,-0.825 0.675,-2.0602 1.5,-2.74489 1.21995,-1.01247 1.5,-0.96484 1.5,0.25511 0,0.825 -0.675,2.0602 -1.5,2.74489 -1.21995,1.01247 -1.5,0.96484 -1.5,-0.25511 z M 4.27985,642.9985 c -0.70918,-0.76953 -0.84824,-1.39914 -0.30901,-1.39914 1.03844,0 2.54172,1.90221 1.94858,2.46567 -0.19258,0.18294 -0.93038,-0.297 -1.63957,-1.06653 z m -91.21057,-8.65425 c 0,-0.825 0.675,-2.0602 1.5,-2.74489 1.21995,-1.01247 1.5,-0.96484 1.5,0.25511 0,0.825 -0.675,2.0602 -1.5,2.74489 -1.21995,1.01247 -1.5,0.96484 -1.5,-0.25511 z m 159,-9.57822 c 0,-0.45834 0.65521,-0.83334 1.45601,-0.83334 0.80081,0 1.22425,0.375 0.94098,0.83334 -0.28326,0.45833 -0.93847,0.83333 -1.45601,0.83333 -0.51754,0 -0.94098,-0.375 -0.94098,-0.83333 z m 112,-29.86354 c 0,-0.4482 -1.37173,-1.42209 -3.04829,-2.16421 -1.67656,-0.74212 -4.34237,-2.4382 -5.92403,-3.76908 -3.3398,-2.81026 -10.95912,-5.34346 -16.11875,-5.35902 -1.97509,-0.006 -5.67274,-0.63731 -8.21702,-1.40303 -4.05559,-1.22055 -4.78129,-1.20502 -5.88595,0.12601 -0.99473,1.19858 -2.6916,1.39819 -8.05988,0.94813 -4.61241,-0.38669 -8.31926,-0.0997 -11.52298,0.8922 -2.59771,0.80425 -7.99784,1.89459 -12.0003,2.42297 -5.96384,0.78732 -8.12954,0.66534 -12,-0.67589 -2.59754,-0.90012 -6.18095,-1.55182 -7.96314,-1.44822 -1.78219,0.1036 -4.57234,-0.50044 -6.20034,-1.34231 -1.628,-0.84188 -3.8342,-1.53068 -4.90267,-1.53068 -2.55308,0 -3.10914,-1.60081 -4.68938,-13.5 -0.73041,-5.5 -1.83145,-12.475 -2.44676,-15.5 -0.6153,-3.025 -1.49371,-7.525 -1.952,-10 -0.7775,-4.19881 -0.84629,-3.96456 -1.02774,3.5 -0.10696,4.4 -0.73525,9.79446 -1.3962,11.98768 -1.06242,3.5254 -1.66214,4.0845 -5.17315,4.8228 -6.63985,1.39625 -17.73095,2.34193 -22.11244,1.88543 -3.94878,-0.41142 -4.1703,-0.6145 -4.77152,-4.37435 -0.34678,-2.1686 -0.37399,-4.35795 -0.0605,-4.86522 0.31352,-0.50728 0.24825,-2.61747 -0.14504,-4.68933 l -0.71507,-3.76701 -1.26618,3 c -0.6964,1.65 -1.55831,5.475 -1.91535,8.5 -1.08985,9.23362 -1.14046,9.3096 -5.78677,8.6864 -2.50228,-0.33563 -5.43145,0.0108 -7.5398,0.89173 -1.8963,0.79232 -5.76613,1.34357 -8.59964,1.225 -4.31213,-0.18044 -5.75986,0.24819 -8.88236,2.62984 -4.03378,3.07672 -7.60545,4.10326 -20.58472,5.91631 -6.75389,0.94344 -8.92173,1.68086 -11.01965,3.74844 -4.02449,3.96631 -14.85714,6.26635 -25.38338,5.38952 -5.50328,-0.45842 -9.12869,-0.3223 -10.46509,0.39292 -2.98345,1.59669 -9.55538,-1.00919 -14.84747,-5.88727 -3.67384,-3.38645 -4.99507,-3.99289 -8.69911,-3.99289 -4.90814,0 -6.46509,1.25341 -10.14878,8.17018 -4.16473,7.82001 -10.98143,7.60492 -14.43654,-0.45553 -2.13191,-4.97355 -6.17737,-7.19415 -15.09201,-8.28419 -3.025,-0.36989 -5.83061,-1.18056 -6.23469,-1.80149 -0.91264,-1.40243 -1.01142,-28.04953 -0.10732,-28.95363 0.3619,-0.36189 1.28808,-0.13506 2.05818,0.50406 1.05369,0.87449 3.30366,0.88704 9.09201,0.0507 8.25099,-1.19213 23.50806,-1.03939 26.54347,0.26573 2.08178,0.89509 5.47711,1.16186 17.36355,1.36426 7.60604,0.12952 8.46857,0.36234 11.63202,3.13989 1.87924,1.65 3.67172,3 3.98327,3 0.31156,0 1.82019,-1.16191 3.35252,-2.58203 2.30902,-2.13993 3.38797,-2.4711 6.30152,-1.93421 3.82382,0.70464 3.81188,0.70433 25.01547,0.63787 7.975,-0.025 17.2,0.33266 20.5,0.7948 3.3,0.46214 9.825,0.67146 14.5,0.46517 4.675,-0.20629 12.55,-0.49535 17.5,-0.64235 l 9,-0.26728 1.2485,-4.98599 c 1.16194,-4.64029 3.20408,-25.51739 4.79167,-48.98598 0.37206,-5.5 1.32112,-11.25072 2.10902,-12.77937 0.7879,-1.52865 1.22383,-3.11707 0.96874,-3.52982 -0.25509,-0.41274 -0.72298,-5.84168 -1.03974,-12.0643 -0.31677,-6.22262 -0.7995,-11.67557 -1.07273,-12.11767 -0.27323,-0.4421 -1.96123,-0.65505 -3.75112,-0.47323 -8.72117,0.88593 -12.11203,1.51636 -13.25411,2.4642 -2.10491,1.74692 -4.56587,0.10989 -3.889,-2.58696 0.56873,-2.266 0.37897,-2.36915 -4.00711,-2.17826 -4.63018,0.20151 -5.66159,1.30794 -3.36248,3.60705 0.98886,0.98886 0.95642,1.41792 -0.15932,2.10748 -0.77052,0.47621 -1.95874,0.6518 -2.64049,0.39019 -0.68174,-0.26161 -1.5366,0.005 -1.8997,0.59252 -0.36309,0.58749 -1.92851,1.06817 -3.4787,1.06817 -1.5502,0 -3.37874,0.675 -4.06343,1.5 -0.68469,0.825 -1.63979,1.5 -2.12244,1.5 -0.48266,2e-5 -0.87756,-0.67498 -0.87756,-1.49998 0,-1.80874 -0.45298,-1.85857 -2.91547,-0.32072 -1.51334,0.9451 -2.40429,0.84123 -4.48643,-0.52305 -3.34377,-2.19092 -3.27242,-2.96323 0.4019,-4.35013 2.68253,-1.01254 3,-0.92991 3,0.78076 0,1.05223 0.40186,1.91314 0.89301,1.91314 1.96837,0 2.96684,-7.35055 1.15092,-8.47285 -0.52584,-0.32498 -1.67107,0.50035 -2.54496,1.83408 -2.31242,3.5292 -7.08032,3.96651 -10.11874,0.92809 -1.31835,-1.31835 -2.91149,-2.07902 -3.54032,-1.69038 -0.62882,0.38864 -1.67534,-0.021 -2.32559,-0.91024 -1.9828,-2.71165 -7.68071,-1.15439 -9.58541,2.61974 -1.07472,2.12954 -3.17446,3.81578 -6.64609,5.33729 l -5.07501,2.2242 -2.85391,-4.52324 c -1.77726,-2.81684 -4.17428,-5.08298 -6.3539,-6.00697 -3.27362,-1.38777 -3.77412,-1.33532 -7.73812,0.8109 -4.08251,2.21038 -4.34454,2.23177 -7.13635,0.5826 -2.55567,-1.50967 -3.04434,-1.53598 -4.13433,-0.22262 -1.56854,1.88998 -5.38538,1.9243 -6.93068,0.0623 -0.78471,-0.94551 -2.29767,-1.24642 -4.48351,-0.8917 -2.96886,0.48178 -11.32357,-1.75927 -21.84311,-5.85914 -2.56473,-0.99957 -2.63752,-1.17562 -1,-2.41826 1.01702,-0.77177 1.24923,-1.3537 0.54748,-1.37202 -0.67023,-0.0175 -0.97706,-0.66128 -0.68182,-1.43065 0.29523,-0.76937 0.006,-1.72705 -0.64331,-2.12819 -0.71339,-0.4409 -2.61891,0.89022 -4.81817,3.36579 -2.77543,3.12411 -3.99376,3.86585 -5.13808,3.12819 -1.25811,-0.81101 -1.27777,-1.11017 -0.12189,-1.85514 0.75797,-0.4885 1.06891,-1.3885 0.69099,-2 -0.37792,-0.61147 -0.21058,-1.11178 0.37188,-1.11178 0.58246,0 1.05902,-0.46156 1.05902,-1.02568 0,-1.13021 -4.13225,0.87795 -7.81736,3.79901 -2.06819,1.63938 -2.18533,2.12666 -1.08948,4.53178 0.67533,1.48219 1.83064,2.69489 2.56735,2.69489 1.35224,0 1.87243,3.13373 0.71271,4.29345 -0.34474,0.34473 -2.03224,-0.11455 -3.75,-1.02063 -1.71777,-0.90608 -4.36072,-1.52921 -5.87322,-1.38475 l -2.75,0.26266 0,-137.07536 0,-137.07537 160,0 160,0 0,136.88337 0,136.88337 -2.25,0.59228 c -1.2375,0.32576 -4.54184,0.32459 -7.34297,-0.003 -2.87536,-0.33585 -5.9468,-0.13792 -7.05388,0.45457 -1.12877,0.6041 -2.54473,0.68863 -3.33666,0.19919 -0.82841,-0.51198 -2.9114,-0.2358 -5.2357,0.6942 -2.52729,1.01122 -5.141,1.31457 -7.57038,0.87863 -2.04072,-0.3662 -4.95845,-0.85214 -6.48383,-1.07987 -1.52538,-0.22774 -3.22022,-0.6902 -3.76631,-1.0277 -1.46642,-0.90589 -0.13606,-2.47504 2.09875,-2.47504 1.27431,0 1.94098,-0.68694 1.94098,-2 0,-2.03976 -3.32912,-2.89452 -4.41712,-1.13411 -0.29433,0.47624 -1.72023,0.63935 -3.16868,0.36246 -2.48579,-0.47519 -2.59568,-0.3311 -1.95883,2.56844 0.97148,4.42315 -2.77695,6.69759 -11.07481,6.71989 -4.30205,0.0116 -6.77119,0.51717 -8.04401,1.64716 -1.84371,1.63682 -9.67838,2.05987 -11.8843,0.64171 -0.57626,-0.37047 -1.68006,-0.28279 -2.4529,0.19485 -0.77284,0.47764 -2.55648,0.63817 -3.96366,0.35674 -1.40717,-0.28144 -4.54684,0.17334 -6.97705,1.01061 -3.96137,1.36481 -4.53429,1.36403 -5.5372,-0.008 -1.51239,-2.06832 -12.12888,-2.53814 -13.73105,-0.60765 -1.59785,1.92529 0.71075,75.20594 2.74073,86.99744 0.64659,3.75586 0.72129,3.78595 4.02517,1.62116 1.83247,-1.20068 3.59753,-1.45075 6.71481,-0.95136 2.3259,0.37261 6.7039,0.82883 9.7289,1.01382 11.97971,0.73259 20.56523,1.87284 21.85418,2.90246 0.74479,0.59495 1.73436,2.08171 2.19904,3.30391 0.65924,1.73393 1.89972,2.34909 5.64583,2.79976 2.64052,0.31766 6.82595,1.05661 9.30095,1.6421 4.49269,1.0628 4.50569,1.05801 8,-2.95102 1.925,-2.20856 4.63283,-4.44056 6.01741,-4.96001 3.80152,-1.42621 25.6063,-2.58869 26.33837,-1.40417 0.8182,1.32387 -2.02291,6.89164 -3.88035,7.60441 -0.81149,0.31139 -1.47543,1.51244 -1.47543,2.66898 0,1.15655 -0.67914,2.78195 -1.50919,3.61201 -2.08058,2.08057 -0.98653,3.34795 2.89007,3.34795 2.07084,0 4.6979,1.08582 7.19098,2.97218 2.16048,1.6347 4.60314,2.99159 5.42814,3.01531 1.33333,0.0383 1.33333,0.15084 0,1.01251 -1,0.64625 -1.08333,0.97448 -0.25,0.98469 1.55087,0.019 1.78845,18.5645 0.25,19.51531 -0.55,0.33992 -1,0.25133 -1,-0.19687 z m -61.5,-24.31683 c 0,-2.1435 -2.90567,-1.8339 -3.32712,0.35451 -0.25736,1.3364 0.14991,1.74367 1.48631,1.48631 1.01244,-0.19498 1.84081,-1.02335 1.84081,-1.84082 z M 64.86497,549.2085 c 4.87043,0.97408 5.54313,-1.9541 4.7346,-20.60914 -0.90032,-20.77294 -1.23579,-22.20064 -5.56732,-23.69356 -4.78832,-1.65035 -17.4216,-1.66368 -18.78589,-0.0198 -1.37307,1.65445 -2.87465,14.51831 -3.7438,32.07263 l -0.6862,13.85927 3.87646,-0.59953 c 2.75613,-0.42625 5.0325,-0.0435 7.87646,1.32442 l 4,1.92393 2.56686,-2.4453 c 2.04296,-1.94622 3.21221,-2.31624 5.72883,-1.81291 z m 7.00851,-53.82133 c -0.44413,-9.28927 -1.99605,-13.15607 -3.25533,-8.11103 -1.16291,4.65899 -3.3665,6.31855 -8.45386,6.36677 -2.52725,0.024 -6.62001,0.43692 -9.09501,0.91771 -3.51733,0.68327 -4.86477,0.54645 -6.17042,-0.62652 -1.49818,-1.34594 -1.78172,-1.29268 -2.75,0.51655 -1.29284,2.41571 -1.44678,10.14871 -0.20202,10.14871 0.48265,0 1.48655,-0.7338 2.23089,-1.63067 1.15314,-1.38946 2.98297,-1.55343 12.37017,-1.10849 10.52129,0.49869 11.1069,0.64324 13.01911,3.21359 2.57424,3.46024 2.8747,2.1984 2.30647,-9.68662 z m -18.43882,-4.77396 c 0.47597,-0.46454 0.86539,-3.13823 0.86539,-5.94153 0,-2.8033 0.35007,-5.31327 0.77794,-5.5777 0.98152,-0.60662 1.88012,3.21238 1.5307,6.50538 -0.401,3.77903 1.17607,6.002 4.24577,5.98469 5.11961,-0.0289 5.4928,-0.88828 5.0453,-11.61847 -0.2263,-5.42642 -0.87533,-10.6791 -1.44228,-11.67261 -0.9394,-1.64618 -1.38598,-1.46172 -5.03524,2.07976 l -4.00442,3.88616 -2.17427,-3.77788 c -1.19585,-2.07784 -2.20279,-4.58873 -2.23766,-5.57977 -0.12702,-3.61098 -1.84018,2.53201 -3.52281,12.63201 -0.91217,5.47528 -1.35885,11.14892 -0.99262,12.60807 0.57595,2.29477 1.03132,2.56278 3.37234,1.98476 1.48856,-0.36753 3.0959,-1.04833 3.57186,-1.51287 z m 16.47249,-37.76385 c -0.007,-11.9625 0.53922,-27.6 1.21476,-34.75 0.67553,-7.15 1.31229,-20.52208 1.41502,-29.71574 0.17625,-15.77273 0.34526,-17.1094 2.99587,-23.69365 l 2.80909,-6.97792 -2.52582,-3.00177 c -2.11768,-2.51671 -2.63482,-4.42451 -3.20033,-11.80635 -0.37098,-4.84251 -0.42168,-12.85457 -0.11266,-17.80457 0.81906,-13.11994 0.84381,-37.56015 0.0413,-40.75 -0.38053,-1.5125 -1.04301,-2.75 -1.47218,-2.75 -1.63714,0 -1.94522,7.4469 -1.50681,36.42338 0.44018,29.09288 0.39426,30.018 -1.65439,33.33278 -2.10215,3.40136 -2.12075,3.40782 -7.87766,2.73966 -3.81735,-0.44305 -6.53724,-0.25941 -8.0357,0.54254 -2.13438,1.14229 -10.45957,1.99898 -21.17832,2.17932 -3.80409,0.064 -4.75,0.42418 -4.75,1.80867 0,2.48064 1.87107,3.62356 7,4.27586 3.0279,0.3851 4.95681,1.25914 5.8964,2.67184 l 1.39639,2.09952 2.24069,-2.10502 c 1.93704,-1.81975 3.51735,-2.1145 11.66123,-2.17493 5.75629,-0.0427 10.32913,0.41636 11.75645,1.18024 2.29936,1.23058 2.32537,1.42377 1.6622,12.34275 -0.49412,8.13554 -1.10894,11.57352 -2.30634,12.89663 -2.23242,2.46679 -7.89837,4.00517 -13.30702,3.61302 -4.316,-0.31292 -4.60804,-0.53934 -7.14226,-5.53758 l -2.64225,-5.21131 -0.64251,4.28455 c -0.61054,4.07137 1.07726,20.54342 3.54917,34.63808 0.62698,3.575 1.0604,8.525 0.96315,11 -0.0972,2.475 0.0986,6.0129 0.43527,7.862 l 0.61208,3.36201 2.45737,-2.30858 c 2.91223,-2.7359 13.35193,-3.89523 15.18517,-1.68631 0.58185,0.70108 1.58236,8.46402 2.22336,17.25096 1.07313,14.71076 1.47176,17.51992 2.48615,17.51992 0.20166,0 0.36059,-9.7875 0.35317,-21.75 z M 51.23014,426.76022 c -1.43832,-1.43832 -1.98687,-4.09346 -2.51701,-12.18299 -0.44466,-6.78518 -0.31636,-10.70536 0.37293,-11.39465 1.30574,-1.30574 12.99405,-0.81912 14.71944,0.61283 1.99347,1.65443 1.73477,21.1901 -0.30765,23.23252 -2.24732,2.24732 -9.92012,2.07988 -12.26771,-0.26771 z m -5.47775,39.65164 c -0.31922,-0.79773 -0.55618,-0.56078 -0.60416,0.60417 -0.0434,1.05416 0.19292,1.64479 0.52522,1.3125 0.33229,-0.33229 0.36781,-1.1948 0.0789,-1.91667 z m 1.92629,-11.94107 c 0.54267,-6.19296 0.42853,-7.16645 -0.71393,-6.08924 -0.85594,0.80706 -1.47343,4.14216 -1.66635,9 -0.39429,9.92868 1.45317,7.66949 2.38028,-2.91076 z m 79.3906,-0.87143 c 0,-0.55 -0.19844,-1 -0.44098,-1 -0.24254,0 -0.7191,0.45 -1.05902,1 -0.33992,0.55 -0.14148,1 0.44098,1 0.58246,0 1.05902,-0.45 1.05902,-1 z M 67.70444,218.33548 c 6.55795,-6.94086 7.54278,-14.13676 1.09986,-8.03639 -3.42114,3.23925 -8.363375,5.31911 -10.438707,5.77704 -2.724665,0.60121 -6.688953,-0.058 -10.718719,-0.18611 1.296193,5.01048 7.529746,7.75605 10.719476,7.45482 4.42786,-0.41815 5.60299,-1.05616 9.33809,-5.00936 z"
         id="path3124"
         inkscape:connector-curvature="0" />
      <path
         style="fill:#0a66ac"
         d="m -8.93072,664.13832 c 0,-0.25358 0.98485,-1.37858 2.18856,-2.5 3.68337,-3.43158 8.13696,-2.14511 5.89597,1.70312 -0.97209,1.66927 -1.02525,1.66967 -1.05412,0.008 -0.0372,-2.14069 -1.87712,-2.31305 -2.66878,-0.25 -0.50618,1.31899 -4.36163,2.23737 -4.36163,1.03888 z m 105.5,-0.30427 c 0.55,-0.40408 1.81144,-2.30969 2.80319,-4.23469 0.99176,-1.925 2.9105,-4.31322 4.26388,-5.30715 2.38681,-1.7529 2.6851,-1.73975 9.93527,0.43789 6.7992,2.04219 7.645,2.58949 9.36066,6.05715 1.80458,3.64739 1.80799,3.81211 0.0789,3.81211 -0.99394,0 -2.06738,-0.81989 -2.38543,-1.82198 -0.82457,-2.59808 -7.69975,-6.17802 -11.8647,-6.17802 -2.88794,0 -4.16337,0.73303 -6.95977,4 -1.88312,2.2 -4.05569,3.99311 -4.82793,3.98469 -0.84019,-0.009 -1.00247,-0.31037 -0.40407,-0.75 z m 62.24649,-3.82153 c -0.35332,-0.35332 0.0761,-1.73892 0.95421,-3.07913 1.12698,-1.71998 1.90912,-2.12421 2.65906,-1.37427 0.74995,0.74995 0.46927,1.65565 -0.9542,3.07913 -1.10917,1.10917 -2.30575,1.72759 -2.65907,1.37427 z M 48.24435,655.3103 c -1.54126,-1.85709 0.81444,-6.13043 3.59996,-6.53049 2.69809,-0.3875 3.01294,2.24955 0.66827,5.59704 -1.78274,2.54521 -2.75426,2.75768 -4.26823,0.93345 z m 3.82493,-3.82897 c 0,-0.55 -0.45,-0.72189 -1,-0.38197 -0.55,0.33992 -1,1.06803 -1,1.61803 0,0.55 0.45,0.72189 1,0.38197 0.55,-0.33992 1,-1.06803 1,-1.61803 z m 25.47282,3.07405 c -0.75194,-1.21667 2.09804,-5.95602 3.58162,-5.95602 1.64363,0 2.18288,2.68804 0.98738,4.92186 -1.1891,2.22185 -3.51026,2.74723 -4.569,1.03416 z m 4.08338,-3.73315 c -0.83458,-0.83458 -2.55557,0.92852 -2.5244,2.58615 0.0279,1.48465 0.2097,1.45585 1.48967,-0.23602 0.80183,-1.05985 1.26745,-2.11741 1.03473,-2.35013 z m -52.5562,0.81231 c 0,-1.08065 0.9,-2.44648 2,-3.03518 2.13938,-1.14496 2.65682,0.12477 1.39301,3.41821 -0.86294,2.24879 -3.39301,1.96318 -3.39301,-0.38303 z M -76.75566,651.3103 c -1.5424,-1.85848 0.81533,-6.13057 3.60444,-6.53108 2.97743,-0.42754 3.86472,2.188 1.8074,5.32786 -1.79868,2.74512 -3.76867,3.18312 -5.41184,1.20322 z m 64.82494,-1.13762 c 0,-0.92763 0.855,-1.57332 2.08333,-1.57332 2.43705,0 2.09257,2.33677 -0.4162,2.82332 -0.98676,0.19138 -1.66713,-0.31876 -1.66713,-1.25 z m 12.25,-1.2356 c -1.95003,-0.78685 -1.46929,-3.55447 1.18771,-6.83772 2.01659,-2.49188 2.73558,-2.81247 4.24504,-1.89282 2.75397,1.67789 2.73011,4.07086 -0.0685,6.86945 -2.56158,2.56158 -3.13514,2.76057 -5.36428,1.86109 z M 5.12674,645.492 c 1.6351,-3.05521 -0.48976,-5.02587 -2.52191,-2.33889 -0.80957,1.07044 -1.48625,2.50875 -1.50375,3.19625 -0.0517,2.03347 2.80404,1.42526 4.02566,-0.85736 z m -35.05746,1.32987 c 0,-2.98981 2.98784,-6.3657 5.33634,-6.02941 2.76263,0.39559 3.32595,3.41759 1.09633,5.8813 -2.25094,2.48726 -6.43267,2.58353 -6.43267,0.14811 z m 5,-2.9674 c 0,-1.21995 -0.28005,-1.26758 -1.5,-0.25511 -0.825,0.68469 -1.5,1.91989 -1.5,2.74489 0,1.21995 0.28005,1.26758 1.5,0.25511 0.825,-0.68469 1.5,-1.91989 1.5,-2.74489 z m -62.97894,-7.72973 c -0.93459,-1.12611 -0.80396,-2.08432 0.61061,-4.47899 2.75301,-4.66047 6.23099,-3.61962 4.95067,1.48158 -0.81055,3.22949 -3.95992,4.92693 -5.56128,2.99741 z m 3.97894,-4.27027 c 0,-1.21995 -0.28005,-1.26758 -1.5,-0.25511 -0.825,0.68469 -1.5,1.91989 -1.5,2.74489 0,1.21995 0.28005,1.26758 1.5,0.25511 0.825,-0.68469 1.5,-1.91989 1.5,-2.74489 z m 154.65099,-5.01081 c -0.79189,-1.28129 0.49411,-6.11983 1.94701,-7.32564 2.00199,-1.6615 4.402,-0.35574 4.402,2.39497 0,3.54209 -4.86984,7.32403 -6.34901,4.93067 z m 4.34901,-3.2443 c 0.85431,-1.5963 0.76049,-2 -0.46482,-2 -0.84435,0 -1.53518,0.1882 -1.53518,0.41821 0,0.23002 -0.27314,1.13002 -0.60699,2 -0.88228,2.2992 1.34379,1.94209 2.60699,-0.41821 z M -122.8829,601.65008 c -0.79869,-0.50526 -3.61119,-1.2156 -6.25,-1.57853 l -4.79782,-0.65987 0.0153,-12.65616 c 0.008,-6.96089 0.34592,-12.14812 0.75,-11.52719 0.40408,0.62093 3.20969,1.4316 6.23469,1.80149 8.91464,1.09004 12.9601,3.31064 15.09201,8.28419 3.45511,8.06045 10.27181,8.27554 14.43654,0.45553 3.68369,-6.91677 5.24064,-8.17018 10.14878,-8.17018 3.70404,0 5.02527,0.60644 8.69913,3.99289 5.29209,4.87808 11.86402,7.48396 14.84746,5.88727 1.33641,-0.71522 4.96182,-0.85134 10.4651,-0.39292 10.52624,0.87683 21.35889,-1.42321 25.38338,-5.38952 2.09792,-2.06758 4.26576,-2.805 11.01965,-3.74844 12.97927,-1.81305 16.55094,-2.83959 20.58472,-5.91631 3.1225,-2.38165 4.57023,-2.81028 8.88236,-2.62984 2.83351,0.11857 6.70334,-0.43268 8.59964,-1.225 2.10835,-0.88093 5.03752,-1.22736 7.5398,-0.89173 4.64631,0.6232 4.69692,0.54722 5.78677,-8.6864 0.35704,-3.025 1.21895,-6.85 1.91535,-8.5 l 1.26618,-3 0.71507,3.76701 c 0.39329,2.07186 0.45856,4.18205 0.14504,4.68933 -0.31351,0.50727 -0.2863,2.69662 0.0605,4.86522 0.60122,3.75985 0.82274,3.96293 4.77152,4.37435 4.38149,0.4565 15.47259,-0.48918 22.11244,-1.88543 3.51101,-0.7383 4.11073,-1.2974 5.17315,-4.8228 0.66095,-2.19322 1.28924,-7.58768 1.3962,-11.98768 0.18145,-7.46456 0.25024,-7.69881 1.02774,-3.5 0.45829,2.475 1.3367,6.975 1.952,10 0.61531,3.025 1.71635,10 2.44676,15.5 1.58024,11.89919 2.1363,13.5 4.68938,13.5 1.06847,0 3.27467,0.6888 4.90267,1.53068 1.628,0.84187 4.41815,1.44591 6.20034,1.34231 1.78219,-0.1036 5.3656,0.5481 7.96314,1.44822 3.87046,1.34123 6.03616,1.46321 12,0.67589 4.00246,-0.52838 9.40259,-1.61872 12.0003,-2.42297 3.20372,-0.99187 6.91057,-1.27889 11.52298,-0.8922 5.36828,0.45006 7.06515,0.25045 8.05988,-0.94813 1.10466,-1.33103 1.83036,-1.34656 5.88595,-0.12601 2.54428,0.76572 6.24193,1.39708 8.21702,1.40303 5.15963,0.0156 12.77895,2.54876 16.11875,5.35902 1.58166,1.33088 4.24747,3.02696 5.92403,3.76908 1.67656,0.74212 3.04829,1.71601 3.04829,2.16421 0,0.4482 0.45,0.53679 1,0.19687 0.56716,-0.35052 1,0.48962 1,1.94098 0,2.22151 -0.42864,2.55833 -3.25,2.55376 -1.7875,-0.003 -4.41666,-0.7904 -5.84257,-1.75 -11.73372,-7.8965 -11.6294,-7.86678 -32.45645,-9.24703 -14.28744,-0.94686 -16.48269,-0.88031 -20,0.60636 -2.58299,1.09176 -7.93813,1.83983 -15.46651,2.16056 -10.38401,0.44239 -11.90559,0.28153 -15.48519,-1.63702 -2.81582,-1.50917 -5.75725,-2.12761 -10.11948,-2.12761 -5.42506,0 -6.33923,-0.28911 -7.75724,-2.45327 -2.33686,-3.56649 -7.76637,-4.36538 -11.2177,-1.65057 -3.75469,2.95344 -5.25216,2.62535 -10.63479,-2.33009 -3.89322,-3.58422 -4.48296,-4.55948 -3.33384,-5.51316 1.90364,-1.57989 18.39109,-3.21568 20.58375,-2.04221 0.94437,0.50541 2.0012,0.63477 2.34852,0.28745 0.76792,-0.76792 0.84555,-7.75074 0.0945,-8.50178 -0.29533,-0.29533 -2.20783,0.0332 -4.25,0.73004 -3.03865,1.03689 -18.42783,2.51666 -30.21303,2.90518 -1.375,0.0453 -3.9022,0.84714 -5.61601,1.7818 -2.53935,1.3849 -3.8196,1.50512 -6.91795,0.64962 -3.2296,-0.89173 -4.44863,-0.72679 -8.09783,1.09571 -3.16333,1.57984 -5.22365,1.97143 -7.81492,1.4853 -3.18376,-0.59728 -4.00587,-0.22245 -8.62935,3.93445 -3.0045,2.70131 -6.82324,5.05452 -9.26713,5.71067 -4.42039,1.18681 -19.1443,8.22018 -21.65681,10.34512 -0.825,0.69773 -3.40955,2.31667 -5.74345,3.59764 -4.21862,2.31539 -4.25667,2.31762 -6.5,0.38058 -4.5132,-3.89698 -8.72054,-6.41248 -10.72529,-6.41248 -1.381,0 -3.04685,1.62051 -5.10594,4.96697 -3.99362,6.49046 -7.1164,7.21515 -15.17531,3.52169 -5.51337,-2.52682 -5.75,-2.79002 -5.75,-6.39558 0,-4.8221 -6.20534,-12.09308 -10.32071,-12.09308 -3.10503,0 -5.63655,4.0468 -5.75537,9.20034 -0.10694,4.63819 -2.3847,10.33756 -4.03731,10.10209 -0.76264,-0.10866 -3.41161,-0.70209 -5.88661,-1.31873 -5.12769,-1.27755 -11.83774,-0.57715 -14.61498,1.52552 -2.24496,1.69969 -2.46328,1.72695 -4.3372,0.5415 z m 164.91487,-6.59567 c -1.1018,-1.32759 -0.89306,-1.97923 1.35369,-4.22597 1.94102,-1.94103 2.95425,-2.35845 3.76262,-1.55008 1.22182,1.22182 0.10921,4.08999 -2.39172,6.16558 -1.11269,0.92344 -1.70522,0.83873 -2.72459,-0.38953 z m 27.53504,-89.98062 c -1.91221,-2.57035 -2.49782,-2.7149 -13.01911,-3.21359 -9.3872,-0.44494 -11.21703,-0.28097 -12.37017,1.10849 -0.74434,0.89687 -1.74824,1.63067 -2.23089,1.63067 -1.24476,0 -1.09082,-7.733 0.20202,-10.14871 0.96828,-1.80923 1.25182,-1.86249 2.75,-0.51655 1.30565,1.17297 2.65309,1.30979 6.17042,0.62652 2.475,-0.48079 6.56776,-0.89376 9.09501,-0.91771 5.08736,-0.0482 7.29095,-1.70778 8.45386,-6.36677 1.25928,-5.04504 2.8112,-1.17824 3.25533,8.11103 0.56823,11.88502 0.26777,13.14686 -2.30647,9.68662 z M 68.7103,473.82753 c -0.26236,-0.42451 -1.00147,-7.96115 -1.64247,-16.74809 -0.641,-8.78694 -1.64151,-16.54988 -2.22336,-17.25096 -1.83324,-2.20892 -12.27294,-1.04959 -15.18517,1.68631 l -2.45737,2.30858 -0.61208,-3.36201 c -0.33664,-1.8491 -0.53251,-5.387 -0.43527,-7.862 0.0973,-2.475 -0.33617,-7.425 -0.96315,-11 -2.47191,-14.09466 -4.15971,-30.56671 -3.54917,-34.63808 l 0.64251,-4.28455 2.64225,5.21131 c 2.53422,4.99824 2.82626,5.22466 7.14226,5.53758 5.40865,0.39215 11.0746,-1.14623 13.30702,-3.61302 1.1974,-1.32311 1.81222,-4.76109 2.30634,-12.89663 0.66317,-10.91898 0.63716,-11.11217 -1.6622,-12.34275 -1.42732,-0.76388 -6.00016,-1.22295 -11.75645,-1.18024 -8.14388,0.0604 -9.72419,0.35518 -11.66123,2.17493 l -2.24069,2.10502 -1.39639,-2.09952 c -0.93959,-1.4127 -2.8685,-2.28674 -5.8964,-2.67184 -5.12893,-0.6523 -7,-1.79522 -7,-4.27586 0,-1.38449 0.94591,-1.74467 4.75,-1.80867 10.71875,-0.18034 19.04394,-1.03703 21.17832,-2.17932 1.49846,-0.80195 4.21835,-0.98559 8.0357,-0.54254 5.75691,0.66816 5.77551,0.6617 7.87766,-2.73966 2.04865,-3.31478 2.09457,-4.2399 1.65439,-33.33278 -0.43841,-28.97648 -0.13033,-36.42338 1.50681,-36.42338 0.42917,0 1.09165,1.2375 1.47218,2.75 0.80255,3.18985 0.7778,27.63006 -0.0413,40.75 -0.30902,4.95 -0.25832,12.96206 0.11266,17.80457 0.56551,7.38184 1.08265,9.28964 3.20033,11.80635 l 2.52582,3.00177 -2.80909,6.97792 c -2.65061,6.58425 -2.81962,7.92092 -2.99587,23.69365 -0.10273,9.19366 -0.73949,22.56574 -1.41502,29.71574 -0.67554,7.15 -1.22218,22.7875 -1.21476,34.75 0.007,11.9625 -0.15151,21.75 -0.35317,21.75 -0.20167,0 -0.58132,-0.34732 -0.84368,-0.77183 z m -5.21245,-46.7996 c 2.04242,-2.04242 2.30112,-21.57809 0.30765,-23.23252 -1.72539,-1.43195 -13.4137,-1.91857 -14.71944,-0.61283 -0.68929,0.68929 -0.81759,4.60947 -0.37293,11.39465 0.80561,12.29298 1.8889,14.02213 8.78472,14.02213 2.69264,0 5.04455,-0.61598 6,-1.57143 z m -18.34962,39.9881 c 0.048,-1.16495 0.28494,-1.4019 0.60416,-0.60417 0.28887,0.72187 0.25335,1.58438 -0.0789,1.91667 -0.3323,0.33229 -0.56864,-0.25834 -0.52522,-1.3125 z m 0.15017,-9.63448 c 0.19292,-4.85784 0.81041,-8.19294 1.66635,-9 1.14246,-1.07721 1.2566,-0.10372 0.71393,6.08924 -0.92711,10.58025 -2.77457,12.83944 -2.38028,2.91076 z"
         id="path3122"
         inkscape:connector-curvature="0" />
      <path
         sodipodi:nodetypes="ccccccccccccccsscssssssssssssssssccccccccccsssscccccccsssssscccccccccccccccccccccccccccccccccccccccssscccssscssssscsssccsscscccssccsscccssscsssssssscsscccccssc"
         id="path3120"
         d="M 71.78125,278.4375 69.8125,283.40625 69.46875,349 l -1.333204,3.99981 -25.96875,2.33378 -2.979296,-74.92734 -1,75.25 -9.65625,0 L 24.875,348 l 1.96875,14.65625 12.34375,0.96875 7.65625,67.9375 -11.96875,138.59375 -0.03125,0 c -0.489569,0.20417 -0.954366,0.42685 -1.375,0.65625 -2.53935,1.3849 -3.83915,1.51175 -6.9375,0.65625 -3.2296,-0.89173 -4.44455,-0.72875 -8.09375,1.09375 -3.16333,1.5798 -5.22123,1.95488 -7.8125,1.46875 -3.18376,-0.59728 -4.00152,-0.2194 -8.625,3.9375 -3.0045,2.70131 -6.83736,5.0626 -9.28125,5.71875 -4.42039,1.18681 -19.14374,8.21881 -21.65625,10.34375 -0.825,0.69773 -3.41609,2.31278 -5.75,3.59375 -4.21861,2.31539 -4.25666,2.31204 -6.5,0.375 -4.5132,-3.89698 -8.714,-6.40625 -10.71875,-6.40625 -1.381,0 -3.03466,1.62229 -5.09375,4.96875 -3.99362,6.49046 -7.12859,7.22471 -15.1875,3.53125 -5.51337,-2.52682 -5.75,-2.80069 -5.75,-6.40625 0,-4.8221 -6.19713,-12.09375 -10.3125,-12.09375 -3.10503,0 -5.63118,4.06521 -5.75,9.21875 -0.10694,4.63819 -2.37864,10.32922 -4.03125,10.09375 -0.76264,-0.10866 -3.43125,-0.72383 -5.90625,-1.34375 -5.09393,-1.27587 -11.3996,-0.56768 -14.75,1.625 -1.54856,1.01346 -2.80798,1.16914 -4,0.53125 -0.9569,-0.51207 -3.8875,-1.23327 -6.5,-1.625 l -4.75,-0.71875 0,32.625 0,32.59375 62.25,0 62.25,-0.0312 2.40625,-2.53125 c 3.0007,-3.1626 6.72446,-2.98353 6.375,0.3125 l -0.25,2.25 48.25,0 c 26.53102,-0.008 48.66875,-0.34592 49.21875,-0.75 0.55,-0.40408 1.82075,-2.325 2.8125,-4.25 0.99176,-1.925 2.89662,-4.31857 4.25,-5.3125 2.38697,-1.75302 2.69662,-1.71548 9.96875,0.46875 6.68905,2.00911 7.69798,2.60883 9.25,5.78125 l 1.71875,3.5625 30.75,0.28125 30.75,0.25 0,-32.5 0,-32.53125 -3.25,0 c -1.7875,-0.003 -4.41784,-0.7904 -5.84375,-1.75 -11.73372,-7.8965 -11.61045,-7.86975 -32.4375,-9.25 -14.28744,-0.94686 -16.48269,-0.86167 -20,0.625 -2.58299,1.09176 -7.94037,1.83552 -15.46875,2.15625 -10.38401,0.44239 -11.9204,0.2623 -15.5,-1.65625 -2.8158,-1.50917 -5.76277,-2.125 -10.125,-2.125 -2.2159,0 -3.635032,-0.0455 -4.6875,-0.25 l -8.625,-156.125 6.333398,-67.56231 10.645898,-0.0109 0.333204,-3.98926 -6.65625,-2.6875 6,-2.65625 1,-6 -14.3125,4 -1.6875,-73.875 z M 45.5,363.3125 l 24.3125,0 -1.6875,25.96875 -4.65625,4 L 50.15625,394.25 47.5,393.28125 z m 22.3125,36.625 -3,26.9375 -1.65625,2 -10.34375,0.6875 -3.65625,-28.625 z M 51.5,437.875 l 14.3125,0.65625 2,51.59375 -3,3 -16.96875,1.34375 -1.6875,-0.34375 z m -5.34375,64.90625 21.645509,0.34375 2.010741,61.90625 -29.625,2.65625 z m 5.59375,72.3125 18.71875,0.59375 2.03125,6.84375 c -2.555253,-1.08791 -5.733074,-0.83899 -8.03125,0.96875 -3.75469,2.95344 -5.24237,2.61169 -10.625,-2.34375 -3.89322,-3.58422 -4.49287,-4.54632 -3.34375,-5.5 0.224281,-0.18614 0.668075,-0.3795 1.25,-0.5625 z m -5.625,13.8125 c 0.398879,-0.0573 0.728111,0.0719 1.03125,0.375 0.77778,0.77782 0.79234,1.66752 0.0625,3.03125 -1.88136,3.51534 -3.72946,4.50683 -5.1875,2.75 -1.1018,-1.32759 -0.903,-1.97201 1.34375,-4.21875 1.213138,-1.21314 2.085202,-1.84197 2.75,-1.9375 z m 28.46875,29.78125 c 2.486344,-0.003 3.577667,4.60616 0.65625,7.25 -1.95477,1.76904 -3.77167,2.13528 -4.53125,0.90625 -0.79189,-1.28129 0.4846,-6.10669 1.9375,-7.3125 0.689381,-0.57214 1.363728,-0.84306 1.9375,-0.84375 z m -158.3125,9.96875 c 1.315027,0.008 2.09518,1.59933 1.375,4.46875 -0.81055,3.22949 -3.96114,4.92952 -5.5625,3 -0.93459,-1.12611 -0.82082,-2.07408 0.59375,-4.46875 1.204442,-2.03896 2.570951,-3.00617 3.59375,-3 z m 88,11.09375 c 0.4538409,-0.053 0.9027025,0.12388 1.46875,0.46875 2.75394,1.67789 2.73608,4.04516 -0.0625,6.84375 -1.38785,1.38785 -2.875,2.51215 -3.3125,2.46875 -3.95955,-0.39298 -4.29996,-3.20528 -0.875,-7.4375 1.2603688,-1.55742 2.0248485,-2.25534 2.78125,-2.34375 z m -29.3125,1.03125 c 0.150891,-0.007 0.290719,-0.021 0.4375,0 2.76263,0.39559 3.32337,3.44254 1.09375,5.90625 -2.25094,2.48726 -6.4375,2.56042 -6.4375,0.125 0,-2.80295 2.642892,-5.92651 4.90625,-6.03125 z m -47.59375,3.9375 c 2.543273,-0.0534 3.209988,2.43138 1.28125,5.375 -1.79868,2.74512 -3.76308,3.19865 -5.40625,1.21875 -1.5424,-1.85848 0.80464,-6.13074 3.59375,-6.53125 0.186089,-0.0267 0.361698,-0.0589 0.53125,-0.0625 z m 105,3.46875 c 0.98884,0.0285 1.041607,1.37367 0.09375,3.84375 -0.33384,0.86999 -1.23384,1.5625 -2,1.5625 -2.12083,0 -1.67445,-3.7861 0.59375,-5 0.534845,-0.28624 0.982887,-0.41574 1.3125,-0.40625 z m -42.21875,0.40625 c 1.22198,0 1.90037,0.51682 1.65625,1.25 -0.63003,1.89219 -3.75,2.18163 -3.75,0.34375 0,-0.92763 0.86542,-1.59375 2.09375,-1.59375 z m 90.96875,0 c 1.64363,0 2.1955,2.70368 1,4.9375 -1.1891,2.22185 -3.53501,2.74432 -4.59375,1.03125 -0.75194,-1.21667 2.11017,-5.96875 3.59375,-5.96875 z M 52.3125,648.75 c 2.249162,-0.0173 2.385628,2.48673 0.1875,5.625 -1.78274,2.54521 -2.73603,2.76173 -4.25,0.9375 -1.54126,-1.85709 0.80823,-6.13119 3.59375,-6.53125 0.168631,-0.0242 0.318806,-0.0301 0.46875,-0.0312 z m 109.25,6.46875 c 0.30677,-0.0519 0.59377,0.0625 0.875,0.34375 0.74995,0.74995 0.45472,1.63902 -0.96875,3.0625 -2.60949,2.60949 -3.75345,1.46554 -1.6875,-1.6875 0.70436,-1.07499 1.26997,-1.63224 1.78125,-1.71875 z"
         style="fill:#1c3044"
         inkscape:connector-curvature="0" />
      <path
         id="rect3978"
         d="m -134.6875,178.84375 0,484.78125 320.71875,0 0,-484.78125 -320.71875,0 z m 11.28125,12.65625 298.15625,0 0,455.03125 -298.15625,0 0,-455.03125 z"
         style="fill:#1c3044;fill-opacity:1;stroke:none"
         inkscape:connector-curvature="0" />
    </g>
    <g
       transform="matrix(-1.1222034,0,0,1.1108925,760.56446,209.24248)"
       id="g4053"
       style="stroke:#000000;stroke-opacity:1;stroke-width:0.89562909000000002;stroke-miterlimit:4;stroke-dasharray:none;fill:none">
      <path
         inkscape:connector-curvature="0"
         style="fill:none;stroke:#000000;stroke-opacity:1;stroke-width:0.89562909000000002;stroke-miterlimit:4;stroke-dasharray:none"
         d="m -4.43072,663.59936 c 0.33992,-0.55 1.04148,-1 1.55902,-1 0.51754,0 0.94098,0.45 0.94098,1 0,0.55 -0.70156,1 -1.55902,1 -0.85746,0 -1.2809,-0.45 -0.94098,-1 z"
         id="path4055" />
      <path
         inkscape:connector-curvature="0"
         style="fill:none;stroke:#000000;stroke-opacity:1;stroke-width:0.89562909000000002;stroke-miterlimit:4;stroke-dasharray:none"
         d="m 99.06928,664.13416 c 0,-0.25587 1.39662,-2.05587 3.10359,-4 2.48924,-2.83509 3.8254,-3.53406 6.75,-3.53106 4.80819,0.005 12.07184,4.34371 12.1311,7.24626 0.008,0.4125 -4.93469,0.75 -10.98469,0.75 -6.05,0 -11,-0.20934 -11,-0.4652 z"
         id="path4057" />
      <path
         inkscape:connector-curvature="0"
         style="fill:none;stroke:#000000;stroke-opacity:1;stroke-width:0.89562909000000002;stroke-miterlimit:4;stroke-dasharray:none"
         d="m 79.29845,652.41186 c 0.2177,-0.65313 0.93051,-1.36573 1.58401,-1.58356 0.73075,-0.24358 0.95424,0.21359 0.58051,1.1875 -0.69752,1.81771 -2.76448,2.19592 -2.16452,0.39606 z"
         id="path4059" />
      <path
         inkscape:connector-curvature="0"
         style="fill:none;stroke:#000000;stroke-opacity:1;stroke-width:0.89562909000000002;stroke-miterlimit:4;stroke-dasharray:none"
         d="m 1.76245,646.9592 c -0.81298,-0.81298 1.09231,-4.35984 2.34201,-4.35984 0.53065,0 0.96482,0.6199 0.96482,1.37756 0,1.66192 -2.43298,3.85612 -3.30683,2.98228 z"
         id="path4061" />
      <path
         inkscape:connector-curvature="0"
         style="fill:none;stroke:#000000;stroke-opacity:1;stroke-width:0.89562909000000002;stroke-miterlimit:4;stroke-dasharray:none"
         d="m 73.06928,623.71739 c 0,-0.55 0.45,-1.27811 1,-1.61803 0.55,-0.33992 1,-0.16803 1,0.38197 0,0.55 -0.45,1.27811 -1,1.61803 -0.55,0.33992 -1,0.16803 -1,-0.38197 z"
         id="path4063" />
      <path
         inkscape:connector-curvature="0"
         style="fill:none;stroke:#000000;stroke-opacity:1;stroke-width:0.89562909000000002;stroke-miterlimit:4;stroke-dasharray:none"
         d="m 179.64114,570.57154 c -2.49308,-1.88636 -5.12014,-2.97218 -7.19098,-2.97218 -3.8766,0 -4.97065,-1.26738 -2.89007,-3.34795 0.83005,-0.83006 1.50919,-2.45546 1.50919,-3.61201 0,-1.15654 0.66394,-2.35759 1.47543,-2.66898 1.85744,-0.71277 4.69855,-6.28054 3.88035,-7.60441 -0.73207,-1.18452 -22.53685,-0.022 -26.33837,1.40417 -1.38458,0.51945 -4.09241,2.75145 -6.01741,4.96001 -3.49431,4.00903 -3.50731,4.01382 -8,2.95102 -2.475,-0.58549 -6.66043,-1.32444 -9.30095,-1.6421 -3.74611,-0.45067 -4.98659,-1.06583 -5.64583,-2.79976 -0.46468,-1.2222 -1.45425,-2.70896 -2.19904,-3.30391 -1.28895,-1.02962 -9.87447,-2.16987 -21.85418,-2.90246 -3.025,-0.18499 -7.403,-0.64121 -9.7289,-1.01382 -3.11728,-0.49939 -4.88234,-0.24932 -6.71481,0.95136 -1.36726,0.89586 -2.70637,1.62884 -2.97579,1.62884 -1.57041,0 -2.39373,-11.5847 -3.74429,-52.68497 -0.89217,-27.1507 -0.90361,-36.52889 -0.0458,-37.56247 1.60217,-1.93049 12.21866,-1.46067 13.73105,0.60765 1.00291,1.37157 1.57583,1.37235 5.5372,0.008 2.43021,-0.83727 5.56988,-1.29205 6.97705,-1.01061 1.40718,0.28143 3.19082,0.1209 3.96366,-0.35674 0.77284,-0.47764 1.87664,-0.56532 2.4529,-0.19485 2.20592,1.41816 10.04059,0.99511 11.8843,-0.64171 1.27282,-1.12999 3.74196,-1.63559 8.04401,-1.64716 8.29786,-0.0223 12.04629,-2.29674 11.07481,-6.71989 -0.63685,-2.89954 -0.52696,-3.04363 1.95883,-2.56844 1.44845,0.27689 2.87435,0.11378 3.16868,-0.36246 1.08798,-1.76087 4.4171,-0.90611 4.4171,1.13365 0,1.31306 -0.66667,2 -1.94098,2 -2.23481,0 -3.56517,1.56915 -2.09875,2.47545 0.54609,0.3375 2.24093,0.79996 3.76631,1.0277 1.52538,0.22773 4.44311,0.71367 6.48383,1.07987 2.42938,0.43594 5.04309,0.13259 7.57038,-0.87863 2.3243,-0.93 4.40729,-1.20618 5.2357,-0.6942 0.7629,0.4715 2.11141,0.45654 3.02721,-0.0336 0.90831,-0.48611 5.09471,-0.79221 9.30311,-0.68022 l 7.65165,0.20361 7.7e-4,60.25 c 6.1e-4,47.54857 -0.26275,60.24414 -1.24923,60.22218 -0.6875,-0.0153 -3.01766,-1.3653 -5.17814,-3 z"
         id="path4065" />
      <path
         inkscape:connector-curvature="0"
         style="fill:none;stroke:#000000;stroke-opacity:1;stroke-width:0.89562909000000002;stroke-miterlimit:4;stroke-dasharray:none"
         d="m 119.24216,570.94017 c 0.19498,-1.01244 1.02335,-1.84081 1.84082,-1.84081 2.1435,0 1.8339,2.90567 -0.35451,3.32712 -1.3364,0.25736 -1.74367,-0.14991 -1.48631,-1.48631 z"
         id="path4067" />
      <path
         inkscape:connector-curvature="0"
         style="fill:none;stroke:#000000;stroke-opacity:1;stroke-width:0.89562909000000002;stroke-miterlimit:4;stroke-dasharray:none"
         d="m -66.6965,551.57005 c -3.0292,-2.75549 -3.86227,-2.98082 -11.5,-3.11058 -11.88163,-0.20185 -15.29699,-0.46846 -17.38257,-1.35694 -3.02491,-1.28864 -19.34187,-1.47626 -26.50713,-0.30478 -3.66051,0.59847 -7.48551,0.72722 -8.5,0.28611 -1.01448,-0.44111 -2.18202,-0.73058 -2.59452,-0.64326 -0.4125,0.0873 -0.75,-20.96135 -0.75,-46.77482 l 0,-46.93358 2.75,-0.32234 c 1.5125,-0.1773 4.06821,0.44449 5.67935,1.38175 1.61114,0.93725 3.29864,1.47586 3.75,1.19691 1.34836,-0.83333 0.92803,-4.38916 -0.51884,-4.38916 -0.73671,0 -1.89202,-1.2127 -2.56735,-2.69489 -1.09585,-2.40512 -0.97871,-2.8924 1.08948,-4.53178 3.68511,-2.92106 7.81736,-4.92922 7.81736,-3.79901 0,0.56412 -0.47656,1.02568 -1.05902,1.02568 -0.58246,0 -0.7498,0.50031 -0.37188,1.1118 0.37792,0.6115 0.067,1.5115 -0.69099,2 -1.15588,0.74497 -1.13622,1.04413 0.12189,1.85514 1.14432,0.73766 2.36265,-0.004 5.13808,-3.12819 2.19926,-2.47557 4.10478,-3.80669 4.81817,-3.36579 0.64905,0.40114 0.93854,1.35882 0.64331,2.12819 -0.29524,0.76937 0.0116,1.41316 0.68182,1.43065 0.70175,0.0183 0.46954,0.60025 -0.54748,1.37202 -1.63752,1.24264 -1.56473,1.41869 1,2.41826 10.51954,4.09987 18.87425,6.34092 21.84311,5.85914 2.18584,-0.35472 3.6988,-0.0538 4.48351,0.8917 1.5453,1.86198 5.36214,1.82766 6.93068,-0.0623 1.08999,-1.31336 1.57866,-1.28705 4.13433,0.22262 2.79181,1.64917 3.05384,1.62778 7.13635,-0.5826 3.964,-2.14622 4.4645,-2.19867 7.73812,-0.8109 2.17962,0.92399 4.57664,3.19013 6.3539,6.00697 l 2.85391,4.52324 5.07501,-2.2242 c 3.47163,-1.52151 5.57137,-3.20775 6.64609,-5.33729 1.9047,-3.77413 7.60261,-5.33139 9.58541,-2.61974 0.65025,0.88927 1.69677,1.29888 2.32559,0.91024 0.62883,-0.38864 2.22197,0.37203 3.54032,1.69038 3.03842,3.03842 7.80632,2.60111 10.11874,-0.92809 0.87389,-1.33373 2.01912,-2.15906 2.54496,-1.83408 1.81592,1.12228 0.81745,8.47283 -1.15092,8.47283 -0.49115,0 -0.89301,-0.86091 -0.89301,-1.91314 0,-1.71067 -0.31747,-1.7933 -3,-0.78076 -3.67432,1.3869 -3.74567,2.15921 -0.4019,4.35013 2.08214,1.36428 2.97309,1.46815 4.48643,0.52305 2.46249,-1.53785 2.91547,-1.48802 2.91547,0.32072 0,0.825 0.3949,1.5 0.87756,1.5 0.48265,0 1.43775,-0.675 2.12244,-1.5 0.68469,-0.825 2.51323,-1.5 4.06343,-1.5 1.55019,0 3.11561,-0.48068 3.4787,-1.06817 0.3631,-0.5875 1.21796,-0.85413 1.8997,-0.59252 0.68175,0.26161 1.86997,0.086 2.64049,-0.39019 1.11574,-0.68956 1.14818,-1.11862 0.15932,-2.10748 -2.29911,-2.29911 -1.2677,-3.40554 3.36248,-3.60705 4.38608,-0.19089 4.57584,-0.0877 4.00711,2.17826 -0.67687,2.69685 1.78409,4.33388 3.889,2.58696 1.14208,-0.94784 4.53294,-1.57827 13.25411,-2.4642 1.78989,-0.18182 3.47789,0.0311 3.75112,0.47323 0.27323,0.4421 0.75596,5.89505 1.07273,12.11767 0.31676,6.22262 0.78465,11.65156 1.03974,12.0643 0.25509,0.41275 -0.18084,2.00117 -0.96874,3.52982 -0.7879,1.52865 -1.73696,7.27937 -2.10902,12.77937 -1.58759,23.46859 -3.62973,44.34569 -4.79167,48.98598 l -1.2485,4.98599 -9,0.26728 c -4.95,0.147 -12.825,0.43606 -17.5,0.64235 -4.675,0.20629 -11.2,-0.003 -14.5,-0.46517 -3.3,-0.46214 -12.525,-0.8198 -20.5,-0.7948 -21.20359,0.0665 -21.19165,0.0668 -25.01547,-0.63787 -2.91355,-0.53689 -3.9925,-0.20572 -6.30152,1.93421 -1.53233,1.42012 -3.10037,2.56884 -3.48453,2.55272 -0.38416,-0.0161 -2.16808,-1.36613 -3.96426,-3 z"
         id="path4069" />
      <path
         inkscape:connector-curvature="0"
         style="fill:none;stroke:#000000;stroke-opacity:1;stroke-width:0.89562909000000002;stroke-miterlimit:4;stroke-dasharray:none"
         d="m 52.56928,551.54275 c -2.84396,-1.36791 -5.12033,-1.75067 -7.87646,-1.32442 l -3.87646,0.59953 0.6862,-13.85927 c 0.86915,-17.55432 2.37073,-30.41818 3.7438,-32.07263 1.36429,-1.64387 13.99757,-1.63054 18.78589,0.0198 4.33153,1.49292 4.667,2.92062 5.56732,23.69356 0.80853,18.65504 0.13583,21.58322 -4.7346,20.60914 -2.51662,-0.50333 -3.68587,-0.13331 -5.72883,1.81291 l -2.56686,2.4453 -4,-1.92393 z"
         id="path4071" />
      <path
         inkscape:connector-curvature="0"
         style="fill:none;stroke:#000000;stroke-opacity:1;stroke-width:0.89562909000000002;stroke-miterlimit:4;stroke-dasharray:none"
         d="m 46.49046,490.14129 c -0.36623,-1.45915 0.0805,-7.13279 0.99262,-12.60807 1.68263,-10.1 3.39579,-16.24299 3.52281,-12.63201 0.0349,0.99104 1.04181,3.50193 2.23766,5.57977 l 2.17427,3.77788 4.00442,-3.88616 c 3.64926,-3.54148 4.09584,-3.72594 5.03524,-2.07976 0.56695,0.99351 1.21598,6.24619 1.44228,11.67261 0.4475,10.73019 0.0743,11.58959 -5.0453,11.61847 -3.0697,0.0173 -4.64677,-2.20566 -4.24577,-5.98469 0.34942,-3.293 -0.54918,-7.112 -1.5307,-6.50538 -0.42787,0.26443 -0.77794,2.7744 -0.77794,5.5777 0,5.64806 -0.49597,6.48127 -4.43725,7.4544 -2.34102,0.57802 -2.79639,0.31001 -3.37234,-1.98476 z"
         id="path4073" />
      <path
         inkscape:connector-curvature="0"
         style="fill:none;stroke:#000000;stroke-opacity:1;stroke-width:0.89562909000000002;stroke-miterlimit:4;stroke-dasharray:none"
         d="m 125.56928,453.59933 c 0.33992,-0.55 0.81648,-1 1.05902,-1 0.24254,0 0.44098,0.45 0.44098,1 0,0.55 -0.47656,1 -1.05902,1 -0.58246,0 -0.7809,-0.45 -0.44098,-1 z"
         id="path4075" />
      <path
         inkscape:connector-curvature="0"
         id="path4077"
         d="m -4.19739,662.47527 c 0.67834,-0.68342 1.48524,-0.99067 1.79313,-0.68278 0.30789,0.30789 -0.24711,0.86705 -1.23333,1.24258 -1.4252,0.54268 -1.54006,0.42782 -0.5598,-0.5598 z m 54.26667,-9.75788 c 0,-0.55 0.45,-1.27811 1,-1.61803 0.55,-0.33992 1,-0.16803 1,0.38197 0,0.55 -0.45,1.27811 -1,1.61803 -0.55,0.33992 -1,0.16803 -1,-0.38197 z m -78,-6.37314 c 0,-0.825 0.675,-2.0602 1.5,-2.74489 1.21995,-1.01247 1.5,-0.96484 1.5,0.25511 0,0.825 -0.675,2.0602 -1.5,2.74489 -1.21995,1.01247 -1.5,0.96484 -1.5,-0.25511 z M 4.27985,642.9985 c -0.70918,-0.76953 -0.84824,-1.39914 -0.30901,-1.39914 1.03844,0 2.54172,1.90221 1.94858,2.46567 -0.19258,0.18294 -0.93038,-0.297 -1.63957,-1.06653 z m -91.21057,-8.65425 c 0,-0.825 0.675,-2.0602 1.5,-2.74489 1.21995,-1.01247 1.5,-0.96484 1.5,0.25511 0,0.825 -0.675,2.0602 -1.5,2.74489 -1.21995,1.01247 -1.5,0.96484 -1.5,-0.25511 z m 159,-9.57822 c 0,-0.45834 0.65521,-0.83334 1.45601,-0.83334 0.80081,0 1.22425,0.375 0.94098,0.83334 -0.28326,0.45833 -0.93847,0.83333 -1.45601,0.83333 -0.51754,0 -0.94098,-0.375 -0.94098,-0.83333 z m 112,-29.86354 c 0,-0.4482 -1.37173,-1.42209 -3.04829,-2.16421 -1.67656,-0.74212 -4.34237,-2.4382 -5.92403,-3.76908 -3.3398,-2.81026 -10.95912,-5.34346 -16.11875,-5.35902 -1.97509,-0.006 -5.67274,-0.63731 -8.21702,-1.40303 -4.05559,-1.22055 -4.78129,-1.20502 -5.88595,0.12601 -0.99473,1.19858 -2.6916,1.39819 -8.05988,0.94813 -4.61241,-0.38669 -8.31926,-0.0997 -11.52298,0.8922 -2.59771,0.80425 -7.99784,1.89459 -12.0003,2.42297 -5.96384,0.78732 -8.12954,0.66534 -12,-0.67589 -2.59754,-0.90012 -6.18095,-1.55182 -7.96314,-1.44822 -1.78219,0.1036 -4.57234,-0.50044 -6.20034,-1.34231 -1.628,-0.84188 -3.8342,-1.53068 -4.90267,-1.53068 -2.55308,0 -3.10914,-1.60081 -4.68938,-13.5 -0.73041,-5.5 -1.83145,-12.475 -2.44676,-15.5 -0.6153,-3.025 -1.49371,-7.525 -1.952,-10 -0.7775,-4.19881 -0.84629,-3.96456 -1.02774,3.5 -0.10696,4.4 -0.73525,9.79446 -1.3962,11.98768 -1.06242,3.5254 -1.66214,4.0845 -5.17315,4.8228 -6.63985,1.39625 -17.73095,2.34193 -22.11244,1.88543 -3.94878,-0.41142 -4.1703,-0.6145 -4.77152,-4.37435 -0.34678,-2.1686 -0.37399,-4.35795 -0.0605,-4.86522 0.31352,-0.50728 0.24825,-2.61747 -0.14504,-4.68933 l -0.71507,-3.76701 -1.26618,3 c -0.6964,1.65 -1.55831,5.475 -1.91535,8.5 -1.08985,9.23362 -1.14046,9.3096 -5.78677,8.6864 -2.50228,-0.33563 -5.43145,0.0108 -7.5398,0.89173 -1.8963,0.79232 -5.76613,1.34357 -8.59964,1.225 -4.31213,-0.18044 -5.75986,0.24819 -8.88236,2.62984 -4.03378,3.07672 -7.60545,4.10326 -20.58472,5.91631 -6.75389,0.94344 -8.92173,1.68086 -11.01965,3.74844 -4.02449,3.96631 -14.85714,6.26635 -25.38338,5.38952 -5.50328,-0.45842 -9.12869,-0.3223 -10.46509,0.39292 -2.98345,1.59669 -9.55538,-1.00919 -14.84747,-5.88727 -3.67384,-3.38645 -4.99507,-3.99289 -8.69911,-3.99289 -4.90814,0 -6.46509,1.25341 -10.14878,8.17018 -4.16473,7.82001 -10.98143,7.60492 -14.43654,-0.45553 -2.13191,-4.97355 -6.17737,-7.19415 -15.09201,-8.28419 -3.025,-0.36989 -5.83061,-1.18056 -6.23469,-1.80149 -0.91264,-1.40243 -1.01142,-28.04953 -0.10732,-28.95363 0.3619,-0.36189 1.28808,-0.13506 2.05818,0.50406 1.05369,0.87449 3.30366,0.88704 9.09201,0.0507 8.25099,-1.19213 23.50806,-1.03939 26.54347,0.26573 2.08178,0.89509 5.47711,1.16186 17.36355,1.36426 7.60604,0.12952 8.46857,0.36234 11.63202,3.13989 1.87924,1.65 3.67172,3 3.98327,3 0.31156,0 1.82019,-1.16191 3.35252,-2.58203 2.30902,-2.13993 3.38797,-2.4711 6.30152,-1.93421 3.82382,0.70464 3.81188,0.70433 25.01547,0.63787 7.975,-0.025 17.2,0.33266 20.5,0.7948 3.3,0.46214 9.825,0.67146 14.5,0.46517 4.675,-0.20629 12.55,-0.49535 17.5,-0.64235 l 9,-0.26728 1.2485,-4.98599 c 1.16194,-4.64029 3.20408,-25.51739 4.79167,-48.98598 0.37206,-5.5 1.32112,-11.25072 2.10902,-12.77937 0.7879,-1.52865 1.22383,-3.11707 0.96874,-3.52982 -0.25509,-0.41274 -0.72298,-5.84168 -1.03974,-12.0643 -0.31677,-6.22262 -0.7995,-11.67557 -1.07273,-12.11767 -0.27323,-0.4421 -1.96123,-0.65505 -3.75112,-0.47323 -8.72117,0.88593 -12.11203,1.51636 -13.25411,2.4642 -2.10491,1.74692 -4.56587,0.10989 -3.889,-2.58696 0.56873,-2.266 0.37897,-2.36915 -4.00711,-2.17826 -4.63018,0.20151 -5.66159,1.30794 -3.36248,3.60705 0.98886,0.98886 0.95642,1.41792 -0.15932,2.10748 -0.77052,0.47621 -1.95874,0.6518 -2.64049,0.39019 -0.68174,-0.26161 -1.5366,0.005 -1.8997,0.59252 -0.36309,0.58749 -1.92851,1.06817 -3.4787,1.06817 -1.5502,0 -3.37874,0.675 -4.06343,1.5 -0.68469,0.825 -1.63979,1.5 -2.12244,1.5 -0.48266,2e-5 -0.87756,-0.67498 -0.87756,-1.49998 0,-1.80874 -0.45298,-1.85857 -2.91547,-0.32072 -1.51334,0.9451 -2.40429,0.84123 -4.48643,-0.52305 -3.34377,-2.19092 -3.27242,-2.96323 0.4019,-4.35013 2.68253,-1.01254 3,-0.92991 3,0.78076 0,1.05223 0.40186,1.91314 0.89301,1.91314 1.96837,0 2.96684,-7.35055 1.15092,-8.47285 -0.52584,-0.32498 -1.67107,0.50035 -2.54496,1.83408 -2.31242,3.5292 -7.08032,3.96651 -10.11874,0.92809 -1.31835,-1.31835 -2.91149,-2.07902 -3.54032,-1.69038 -0.62882,0.38864 -1.67534,-0.021 -2.32559,-0.91024 -1.9828,-2.71165 -7.68071,-1.15439 -9.58541,2.61974 -1.07472,2.12954 -3.17446,3.81578 -6.64609,5.33729 l -5.07501,2.2242 -2.85391,-4.52324 c -1.77726,-2.81684 -4.17428,-5.08298 -6.3539,-6.00697 -3.27362,-1.38777 -3.77412,-1.33532 -7.73812,0.8109 -4.08251,2.21038 -4.34454,2.23177 -7.13635,0.5826 -2.55567,-1.50967 -3.04434,-1.53598 -4.13433,-0.22262 -1.56854,1.88998 -5.38538,1.9243 -6.93068,0.0623 -0.78471,-0.94551 -2.29767,-1.24642 -4.48351,-0.8917 -2.96886,0.48178 -11.32357,-1.75927 -21.84311,-5.85914 -2.56473,-0.99957 -2.63752,-1.17562 -1,-2.41826 1.01702,-0.77177 1.24923,-1.3537 0.54748,-1.37202 -0.67023,-0.0175 -0.97706,-0.66128 -0.68182,-1.43065 0.29523,-0.76937 0.006,-1.72705 -0.64331,-2.12819 -0.71339,-0.4409 -2.61891,0.89022 -4.81817,3.36579 -2.77543,3.12411 -3.99376,3.86585 -5.13808,3.12819 -1.25811,-0.81101 -1.27777,-1.11017 -0.12189,-1.85514 0.75797,-0.4885 1.06891,-1.3885 0.69099,-2 -0.37792,-0.61147 -0.21058,-1.11178 0.37188,-1.11178 0.58246,0 1.05902,-0.46156 1.05902,-1.02568 0,-1.13021 -4.13225,0.87795 -7.81736,3.79901 -2.06819,1.63938 -2.18533,2.12666 -1.08948,4.53178 0.67533,1.48219 1.83064,2.69489 2.56735,2.69489 1.35224,0 1.87243,3.13373 0.71271,4.29345 -0.34474,0.34473 -2.03224,-0.11455 -3.75,-1.02063 -1.71777,-0.90608 -4.36072,-1.52921 -5.87322,-1.38475 l -2.75,0.26266 0,-137.07536 0,-137.07537 160,0 160,0 0,136.88337 0,136.88337 -2.25,0.59228 c -1.2375,0.32576 -4.54184,0.32459 -7.34297,-0.003 -2.87536,-0.33585 -5.9468,-0.13792 -7.05388,0.45457 -1.12877,0.6041 -2.54473,0.68863 -3.33666,0.19919 -0.82841,-0.51198 -2.9114,-0.2358 -5.2357,0.6942 -2.52729,1.01122 -5.141,1.31457 -7.57038,0.87863 -2.04072,-0.3662 -4.95845,-0.85214 -6.48383,-1.07987 -1.52538,-0.22774 -3.22022,-0.6902 -3.76631,-1.0277 -1.46642,-0.90589 -0.13606,-2.47504 2.09875,-2.47504 1.27431,0 1.94098,-0.68694 1.94098,-2 0,-2.03976 -3.32912,-2.89452 -4.41712,-1.13411 -0.29433,0.47624 -1.72023,0.63935 -3.16868,0.36246 -2.48579,-0.47519 -2.59568,-0.3311 -1.95883,2.56844 0.97148,4.42315 -2.77695,6.69759 -11.07481,6.71989 -4.30205,0.0116 -6.77119,0.51717 -8.04401,1.64716 -1.84371,1.63682 -9.67838,2.05987 -11.8843,0.64171 -0.57626,-0.37047 -1.68006,-0.28279 -2.4529,0.19485 -0.77284,0.47764 -2.55648,0.63817 -3.96366,0.35674 -1.40717,-0.28144 -4.54684,0.17334 -6.97705,1.01061 -3.96137,1.36481 -4.53429,1.36403 -5.5372,-0.008 -1.51239,-2.06832 -12.12888,-2.53814 -13.73105,-0.60765 -1.59785,1.92529 0.71075,75.20594 2.74073,86.99744 0.64659,3.75586 0.72129,3.78595 4.02517,1.62116 1.83247,-1.20068 3.59753,-1.45075 6.71481,-0.95136 2.3259,0.37261 6.7039,0.82883 9.7289,1.01382 11.97971,0.73259 20.56523,1.87284 21.85418,2.90246 0.74479,0.59495 1.73436,2.08171 2.19904,3.30391 0.65924,1.73393 1.89972,2.34909 5.64583,2.79976 2.64052,0.31766 6.82595,1.05661 9.30095,1.6421 4.49269,1.0628 4.50569,1.05801 8,-2.95102 1.925,-2.20856 4.63283,-4.44056 6.01741,-4.96001 3.80152,-1.42621 25.6063,-2.58869 26.33837,-1.40417 0.8182,1.32387 -2.02291,6.89164 -3.88035,7.60441 -0.81149,0.31139 -1.47543,1.51244 -1.47543,2.66898 0,1.15655 -0.67914,2.78195 -1.50919,3.61201 -2.08058,2.08057 -0.98653,3.34795 2.89007,3.34795 2.07084,0 4.6979,1.08582 7.19098,2.97218 2.16048,1.6347 4.60314,2.99159 5.42814,3.01531 1.33333,0.0383 1.33333,0.15084 0,1.01251 -1,0.64625 -1.08333,0.97448 -0.25,0.98469 1.55087,0.019 1.78845,18.5645 0.25,19.51531 -0.55,0.33992 -1,0.25133 -1,-0.19687 z m -61.5,-24.31683 c 0,-2.1435 -2.90567,-1.8339 -3.32712,0.35451 -0.25736,1.3364 0.14991,1.74367 1.48631,1.48631 1.01244,-0.19498 1.84081,-1.02335 1.84081,-1.84082 z M 64.86497,549.2085 c 4.87043,0.97408 5.54313,-1.9541 4.7346,-20.60914 -0.90032,-20.77294 -1.23579,-22.20064 -5.56732,-23.69356 -4.78832,-1.65035 -17.4216,-1.66368 -18.78589,-0.0198 -1.37307,1.65445 -2.87465,14.51831 -3.7438,32.07263 l -0.6862,13.85927 3.87646,-0.59953 c 2.75613,-0.42625 5.0325,-0.0435 7.87646,1.32442 l 4,1.92393 2.56686,-2.4453 c 2.04296,-1.94622 3.21221,-2.31624 5.72883,-1.81291 z m 7.00851,-53.82133 c -0.44413,-9.28927 -1.99605,-13.15607 -3.25533,-8.11103 -1.16291,4.65899 -3.3665,6.31855 -8.45386,6.36677 -2.52725,0.024 -6.62001,0.43692 -9.09501,0.91771 -3.51733,0.68327 -4.86477,0.54645 -6.17042,-0.62652 -1.49818,-1.34594 -1.78172,-1.29268 -2.75,0.51655 -1.29284,2.41571 -1.44678,10.14871 -0.20202,10.14871 0.48265,0 1.48655,-0.7338 2.23089,-1.63067 1.15314,-1.38946 2.98297,-1.55343 12.37017,-1.10849 10.52129,0.49869 11.1069,0.64324 13.01911,3.21359 2.57424,3.46024 2.8747,2.1984 2.30647,-9.68662 z m -18.43882,-4.77396 c 0.47597,-0.46454 0.86539,-3.13823 0.86539,-5.94153 0,-2.8033 0.35007,-5.31327 0.77794,-5.5777 0.98152,-0.60662 1.88012,3.21238 1.5307,6.50538 -0.401,3.77903 1.17607,6.002 4.24577,5.98469 5.11961,-0.0289 5.4928,-0.88828 5.0453,-11.61847 -0.2263,-5.42642 -0.87533,-10.6791 -1.44228,-11.67261 -0.9394,-1.64618 -1.38598,-1.46172 -5.03524,2.07976 l -4.00442,3.88616 -2.17427,-3.77788 c -1.19585,-2.07784 -2.20279,-4.58873 -2.23766,-5.57977 -0.12702,-3.61098 -1.84018,2.53201 -3.52281,12.63201 -0.91217,5.47528 -1.35885,11.14892 -0.99262,12.60807 0.57595,2.29477 1.03132,2.56278 3.37234,1.98476 1.48856,-0.36753 3.0959,-1.04833 3.57186,-1.51287 z m 16.47249,-37.76385 c -0.007,-11.9625 0.53922,-27.6 1.21476,-34.75 0.67553,-7.15 1.31229,-20.52208 1.41502,-29.71574 0.17625,-15.77273 0.34526,-17.1094 2.99587,-23.69365 l 2.80909,-6.97792 -2.52582,-3.00177 c -2.11768,-2.51671 -2.63482,-4.42451 -3.20033,-11.80635 -0.37098,-4.84251 -0.42168,-12.85457 -0.11266,-17.80457 0.81906,-13.11994 0.84381,-37.56015 0.0413,-40.75 -0.38053,-1.5125 -1.04301,-2.75 -1.47218,-2.75 -1.63714,0 -1.94522,7.4469 -1.50681,36.42338 0.44018,29.09288 0.39426,30.018 -1.65439,33.33278 -2.10215,3.40136 -2.12075,3.40782 -7.87766,2.73966 -3.81735,-0.44305 -6.53724,-0.25941 -8.0357,0.54254 -2.13438,1.14229 -10.45957,1.99898 -21.17832,2.17932 -3.80409,0.064 -4.75,0.42418 -4.75,1.80867 0,2.48064 1.87107,3.62356 7,4.27586 3.0279,0.3851 4.95681,1.25914 5.8964,2.67184 l 1.39639,2.09952 2.24069,-2.10502 c 1.93704,-1.81975 3.51735,-2.1145 11.66123,-2.17493 5.75629,-0.0427 10.32913,0.41636 11.75645,1.18024 2.29936,1.23058 2.32537,1.42377 1.6622,12.34275 -0.49412,8.13554 -1.10894,11.57352 -2.30634,12.89663 -2.23242,2.46679 -7.89837,4.00517 -13.30702,3.61302 -4.316,-0.31292 -4.60804,-0.53934 -7.14226,-5.53758 l -2.64225,-5.21131 -0.64251,4.28455 c -0.61054,4.07137 1.07726,20.54342 3.54917,34.63808 0.62698,3.575 1.0604,8.525 0.96315,11 -0.0972,2.475 0.0986,6.0129 0.43527,7.862 l 0.61208,3.36201 2.45737,-2.30858 c 2.91223,-2.7359 13.35193,-3.89523 15.18517,-1.68631 0.58185,0.70108 1.58236,8.46402 2.22336,17.25096 1.07313,14.71076 1.47176,17.51992 2.48615,17.51992 0.20166,0 0.36059,-9.7875 0.35317,-21.75 z M 51.23014,426.76022 c -1.43832,-1.43832 -1.98687,-4.09346 -2.51701,-12.18299 -0.44466,-6.78518 -0.31636,-10.70536 0.37293,-11.39465 1.30574,-1.30574 12.99405,-0.81912 14.71944,0.61283 1.99347,1.65443 1.73477,21.1901 -0.30765,23.23252 -2.24732,2.24732 -9.92012,2.07988 -12.26771,-0.26771 z m -5.47775,39.65164 c -0.31922,-0.79773 -0.55618,-0.56078 -0.60416,0.60417 -0.0434,1.05416 0.19292,1.64479 0.52522,1.3125 0.33229,-0.33229 0.36781,-1.1948 0.0789,-1.91667 z m 1.92629,-11.94107 c 0.54267,-6.19296 0.42853,-7.16645 -0.71393,-6.08924 -0.85594,0.80706 -1.47343,4.14216 -1.66635,9 -0.39429,9.92868 1.45317,7.66949 2.38028,-2.91076 z m 79.3906,-0.87143 c 0,-0.55 -0.19844,-1 -0.44098,-1 -0.24254,0 -0.7191,0.45 -1.05902,1 -0.33992,0.55 -0.14148,1 0.44098,1 0.58246,0 1.05902,-0.45 1.05902,-1 z M 67.70444,218.33548 c 6.55795,-6.94086 7.54278,-14.13676 1.09986,-8.03639 -3.42114,3.23925 -8.363375,5.31911 -10.438707,5.77704 -2.724665,0.60121 -6.688953,-0.058 -10.718719,-0.18611 1.296193,5.01048 7.529746,7.75605 10.719476,7.45482 4.42786,-0.41815 5.60299,-1.05616 9.33809,-5.00936 z"
         style="fill:none;stroke:#000000;stroke-opacity:1;stroke-width:0.89562909000000002;stroke-miterlimit:4;stroke-dasharray:none"
         sodipodi:nodetypes="sssssssssssssssssssssssssssscsscssssssssssssssssscscssssssssssssssssssssssssssssscsssssssssssssssscsssssssssscsscssssssssssccssccssssscsscccccccscssssscssssssssssscssssssssssssssssscsssccsssscsssscsscsccsscsssssssssscssssscsssssscssscssssssssssssscssssssscsscccssssccsssssscccccsssssssssssscss" />
      <path
         inkscape:connector-curvature="0"
         id="path4079"
         d="m -8.93072,664.13832 c 0,-0.25358 0.98485,-1.37858 2.18856,-2.5 3.68337,-3.43158 8.13696,-2.14511 5.89597,1.70312 -0.97209,1.66927 -1.02525,1.66967 -1.05412,0.008 -0.0372,-2.14069 -1.87712,-2.31305 -2.66878,-0.25 -0.50618,1.31899 -4.36163,2.23737 -4.36163,1.03888 z m 105.5,-0.30427 c 0.55,-0.40408 1.81144,-2.30969 2.80319,-4.23469 0.99176,-1.925 2.9105,-4.31322 4.26388,-5.30715 2.38681,-1.7529 2.6851,-1.73975 9.93527,0.43789 6.7992,2.04219 7.645,2.58949 9.36066,6.05715 1.80458,3.64739 1.80799,3.81211 0.0789,3.81211 -0.99394,0 -2.06738,-0.81989 -2.38543,-1.82198 -0.82457,-2.59808 -7.69975,-6.17802 -11.8647,-6.17802 -2.88794,0 -4.16337,0.73303 -6.95977,4 -1.88312,2.2 -4.05569,3.99311 -4.82793,3.98469 -0.84019,-0.009 -1.00247,-0.31037 -0.40407,-0.75 z m 62.24649,-3.82153 c -0.35332,-0.35332 0.0761,-1.73892 0.95421,-3.07913 1.12698,-1.71998 1.90912,-2.12421 2.65906,-1.37427 0.74995,0.74995 0.46927,1.65565 -0.9542,3.07913 -1.10917,1.10917 -2.30575,1.72759 -2.65907,1.37427 z M 48.24435,655.3103 c -1.54126,-1.85709 0.81444,-6.13043 3.59996,-6.53049 2.69809,-0.3875 3.01294,2.24955 0.66827,5.59704 -1.78274,2.54521 -2.75426,2.75768 -4.26823,0.93345 z m 3.82493,-3.82897 c 0,-0.55 -0.45,-0.72189 -1,-0.38197 -0.55,0.33992 -1,1.06803 -1,1.61803 0,0.55 0.45,0.72189 1,0.38197 0.55,-0.33992 1,-1.06803 1,-1.61803 z m 25.47282,3.07405 c -0.75194,-1.21667 2.09804,-5.95602 3.58162,-5.95602 1.64363,0 2.18288,2.68804 0.98738,4.92186 -1.1891,2.22185 -3.51026,2.74723 -4.569,1.03416 z m 4.08338,-3.73315 c -0.83458,-0.83458 -2.55557,0.92852 -2.5244,2.58615 0.0279,1.48465 0.2097,1.45585 1.48967,-0.23602 0.80183,-1.05985 1.26745,-2.11741 1.03473,-2.35013 z m -52.5562,0.81231 c 0,-1.08065 0.9,-2.44648 2,-3.03518 2.13938,-1.14496 2.65682,0.12477 1.39301,3.41821 -0.86294,2.24879 -3.39301,1.96318 -3.39301,-0.38303 z M -76.75566,651.3103 c -1.5424,-1.85848 0.81533,-6.13057 3.60444,-6.53108 2.97743,-0.42754 3.86472,2.188 1.8074,5.32786 -1.79868,2.74512 -3.76867,3.18312 -5.41184,1.20322 z m 64.82494,-1.13762 c 0,-0.92763 0.855,-1.57332 2.08333,-1.57332 2.43705,0 2.09257,2.33677 -0.4162,2.82332 -0.98676,0.19138 -1.66713,-0.31876 -1.66713,-1.25 z m 12.25,-1.2356 c -1.95003,-0.78685 -1.46929,-3.55447 1.18771,-6.83772 2.01659,-2.49188 2.73558,-2.81247 4.24504,-1.89282 2.75397,1.67789 2.73011,4.07086 -0.0685,6.86945 -2.56158,2.56158 -3.13514,2.76057 -5.36428,1.86109 z M 5.12674,645.492 c 1.6351,-3.05521 -0.48976,-5.02587 -2.52191,-2.33889 -0.80957,1.07044 -1.48625,2.50875 -1.50375,3.19625 -0.0517,2.03347 2.80404,1.42526 4.02566,-0.85736 z m -35.05746,1.32987 c 0,-2.98981 2.98784,-6.3657 5.33634,-6.02941 2.76263,0.39559 3.32595,3.41759 1.09633,5.8813 -2.25094,2.48726 -6.43267,2.58353 -6.43267,0.14811 z m 5,-2.9674 c 0,-1.21995 -0.28005,-1.26758 -1.5,-0.25511 -0.825,0.68469 -1.5,1.91989 -1.5,2.74489 0,1.21995 0.28005,1.26758 1.5,0.25511 0.825,-0.68469 1.5,-1.91989 1.5,-2.74489 z m -62.97894,-7.72973 c -0.93459,-1.12611 -0.80396,-2.08432 0.61061,-4.47899 2.75301,-4.66047 6.23099,-3.61962 4.95067,1.48158 -0.81055,3.22949 -3.95992,4.92693 -5.56128,2.99741 z m 3.97894,-4.27027 c 0,-1.21995 -0.28005,-1.26758 -1.5,-0.25511 -0.825,0.68469 -1.5,1.91989 -1.5,2.74489 0,1.21995 0.28005,1.26758 1.5,0.25511 0.825,-0.68469 1.5,-1.91989 1.5,-2.74489 z m 154.65099,-5.01081 c -0.79189,-1.28129 0.49411,-6.11983 1.94701,-7.32564 2.00199,-1.6615 4.402,-0.35574 4.402,2.39497 0,3.54209 -4.86984,7.32403 -6.34901,4.93067 z m 4.34901,-3.2443 c 0.85431,-1.5963 0.76049,-2 -0.46482,-2 -0.84435,0 -1.53518,0.1882 -1.53518,0.41821 0,0.23002 -0.27314,1.13002 -0.60699,2 -0.88228,2.2992 1.34379,1.94209 2.60699,-0.41821 z M -122.8829,601.65008 c -0.79869,-0.50526 -3.61119,-1.2156 -6.25,-1.57853 l -4.79782,-0.65987 0.0153,-12.65616 c 0.008,-6.96089 0.34592,-12.14812 0.75,-11.52719 0.40408,0.62093 3.20969,1.4316 6.23469,1.80149 8.91464,1.09004 12.9601,3.31064 15.09201,8.28419 3.45511,8.06045 10.27181,8.27554 14.43654,0.45553 3.68369,-6.91677 5.24064,-8.17018 10.14878,-8.17018 3.70404,0 5.02527,0.60644 8.69913,3.99289 5.29209,4.87808 11.86402,7.48396 14.84746,5.88727 1.33641,-0.71522 4.96182,-0.85134 10.4651,-0.39292 10.52624,0.87683 21.35889,-1.42321 25.38338,-5.38952 2.09792,-2.06758 4.26576,-2.805 11.01965,-3.74844 12.97927,-1.81305 16.55094,-2.83959 20.58472,-5.91631 3.1225,-2.38165 4.57023,-2.81028 8.88236,-2.62984 2.83351,0.11857 6.70334,-0.43268 8.59964,-1.225 2.10835,-0.88093 5.03752,-1.22736 7.5398,-0.89173 4.64631,0.6232 4.69692,0.54722 5.78677,-8.6864 0.35704,-3.025 1.21895,-6.85 1.91535,-8.5 l 1.26618,-3 0.71507,3.76701 c 0.39329,2.07186 0.45856,4.18205 0.14504,4.68933 -0.31351,0.50727 -0.2863,2.69662 0.0605,4.86522 0.60122,3.75985 0.82274,3.96293 4.77152,4.37435 4.38149,0.4565 15.47259,-0.48918 22.11244,-1.88543 3.51101,-0.7383 4.11073,-1.2974 5.17315,-4.8228 0.66095,-2.19322 1.28924,-7.58768 1.3962,-11.98768 0.18145,-7.46456 0.25024,-7.69881 1.02774,-3.5 0.45829,2.475 1.3367,6.975 1.952,10 0.61531,3.025 1.71635,10 2.44676,15.5 1.58024,11.89919 2.1363,13.5 4.68938,13.5 1.06847,0 3.27467,0.6888 4.90267,1.53068 1.628,0.84187 4.41815,1.44591 6.20034,1.34231 1.78219,-0.1036 5.3656,0.5481 7.96314,1.44822 3.87046,1.34123 6.03616,1.46321 12,0.67589 4.00246,-0.52838 9.40259,-1.61872 12.0003,-2.42297 3.20372,-0.99187 6.91057,-1.27889 11.52298,-0.8922 5.36828,0.45006 7.06515,0.25045 8.05988,-0.94813 1.10466,-1.33103 1.83036,-1.34656 5.88595,-0.12601 2.54428,0.76572 6.24193,1.39708 8.21702,1.40303 5.15963,0.0156 12.77895,2.54876 16.11875,5.35902 1.58166,1.33088 4.24747,3.02696 5.92403,3.76908 1.67656,0.74212 3.04829,1.71601 3.04829,2.16421 0,0.4482 0.45,0.53679 1,0.19687 0.56716,-0.35052 1,0.48962 1,1.94098 0,2.22151 -0.42864,2.55833 -3.25,2.55376 -1.7875,-0.003 -4.41666,-0.7904 -5.84257,-1.75 -11.73372,-7.8965 -11.6294,-7.86678 -32.45645,-9.24703 -14.28744,-0.94686 -16.48269,-0.88031 -20,0.60636 -2.58299,1.09176 -7.93813,1.83983 -15.46651,2.16056 -10.38401,0.44239 -11.90559,0.28153 -15.48519,-1.63702 -2.81582,-1.50917 -5.75725,-2.12761 -10.11948,-2.12761 -5.42506,0 -6.33923,-0.28911 -7.75724,-2.45327 -2.33686,-3.56649 -7.76637,-4.36538 -11.2177,-1.65057 -3.75469,2.95344 -5.25216,2.62535 -10.63479,-2.33009 -3.89322,-3.58422 -4.48296,-4.55948 -3.33384,-5.51316 1.90364,-1.57989 18.39109,-3.21568 20.58375,-2.04221 0.94437,0.50541 2.0012,0.63477 2.34852,0.28745 0.76792,-0.76792 0.84555,-7.75074 0.0945,-8.50178 -0.29533,-0.29533 -2.20783,0.0332 -4.25,0.73004 -3.03865,1.03689 -18.42783,2.51666 -30.21303,2.90518 -1.375,0.0453 -3.9022,0.84714 -5.61601,1.7818 -2.53935,1.3849 -3.8196,1.50512 -6.91795,0.64962 -3.2296,-0.89173 -4.44863,-0.72679 -8.09783,1.09571 -3.16333,1.57984 -5.22365,1.97143 -7.81492,1.4853 -3.18376,-0.59728 -4.00587,-0.22245 -8.62935,3.93445 -3.0045,2.70131 -6.82324,5.05452 -9.26713,5.71067 -4.42039,1.18681 -19.1443,8.22018 -21.65681,10.34512 -0.825,0.69773 -3.40955,2.31667 -5.74345,3.59764 -4.21862,2.31539 -4.25667,2.31762 -6.5,0.38058 -4.5132,-3.89698 -8.72054,-6.41248 -10.72529,-6.41248 -1.381,0 -3.04685,1.62051 -5.10594,4.96697 -3.99362,6.49046 -7.1164,7.21515 -15.17531,3.52169 -5.51337,-2.52682 -5.75,-2.79002 -5.75,-6.39558 0,-4.8221 -6.20534,-12.09308 -10.32071,-12.09308 -3.10503,0 -5.63655,4.0468 -5.75537,9.20034 -0.10694,4.63819 -2.3847,10.33756 -4.03731,10.10209 -0.76264,-0.10866 -3.41161,-0.70209 -5.88661,-1.31873 -5.12769,-1.27755 -11.83774,-0.57715 -14.61498,1.52552 -2.24496,1.69969 -2.46328,1.72695 -4.3372,0.5415 z m 164.91487,-6.59567 c -1.1018,-1.32759 -0.89306,-1.97923 1.35369,-4.22597 1.94102,-1.94103 2.95425,-2.35845 3.76262,-1.55008 1.22182,1.22182 0.10921,4.08999 -2.39172,6.16558 -1.11269,0.92344 -1.70522,0.83873 -2.72459,-0.38953 z m 27.53504,-89.98062 c -1.91221,-2.57035 -2.49782,-2.7149 -13.01911,-3.21359 -9.3872,-0.44494 -11.21703,-0.28097 -12.37017,1.10849 -0.74434,0.89687 -1.74824,1.63067 -2.23089,1.63067 -1.24476,0 -1.09082,-7.733 0.20202,-10.14871 0.96828,-1.80923 1.25182,-1.86249 2.75,-0.51655 1.30565,1.17297 2.65309,1.30979 6.17042,0.62652 2.475,-0.48079 6.56776,-0.89376 9.09501,-0.91771 5.08736,-0.0482 7.29095,-1.70778 8.45386,-6.36677 1.25928,-5.04504 2.8112,-1.17824 3.25533,8.11103 0.56823,11.88502 0.26777,13.14686 -2.30647,9.68662 z M 68.7103,473.82753 c -0.26236,-0.42451 -1.00147,-7.96115 -1.64247,-16.74809 -0.641,-8.78694 -1.64151,-16.54988 -2.22336,-17.25096 -1.83324,-2.20892 -12.27294,-1.04959 -15.18517,1.68631 l -2.45737,2.30858 -0.61208,-3.36201 c -0.33664,-1.8491 -0.53251,-5.387 -0.43527,-7.862 0.0973,-2.475 -0.33617,-7.425 -0.96315,-11 -2.47191,-14.09466 -4.15971,-30.56671 -3.54917,-34.63808 l 0.64251,-4.28455 2.64225,5.21131 c 2.53422,4.99824 2.82626,5.22466 7.14226,5.53758 5.40865,0.39215 11.0746,-1.14623 13.30702,-3.61302 1.1974,-1.32311 1.81222,-4.76109 2.30634,-12.89663 0.66317,-10.91898 0.63716,-11.11217 -1.6622,-12.34275 -1.42732,-0.76388 -6.00016,-1.22295 -11.75645,-1.18024 -8.14388,0.0604 -9.72419,0.35518 -11.66123,2.17493 l -2.24069,2.10502 -1.39639,-2.09952 c -0.93959,-1.4127 -2.8685,-2.28674 -5.8964,-2.67184 -5.12893,-0.6523 -7,-1.79522 -7,-4.27586 0,-1.38449 0.94591,-1.74467 4.75,-1.80867 10.71875,-0.18034 19.04394,-1.03703 21.17832,-2.17932 1.49846,-0.80195 4.21835,-0.98559 8.0357,-0.54254 5.75691,0.66816 5.77551,0.6617 7.87766,-2.73966 2.04865,-3.31478 2.09457,-4.2399 1.65439,-33.33278 -0.43841,-28.97648 -0.13033,-36.42338 1.50681,-36.42338 0.42917,0 1.09165,1.2375 1.47218,2.75 0.80255,3.18985 0.7778,27.63006 -0.0413,40.75 -0.30902,4.95 -0.25832,12.96206 0.11266,17.80457 0.56551,7.38184 1.08265,9.28964 3.20033,11.80635 l 2.52582,3.00177 -2.80909,6.97792 c -2.65061,6.58425 -2.81962,7.92092 -2.99587,23.69365 -0.10273,9.19366 -0.73949,22.56574 -1.41502,29.71574 -0.67554,7.15 -1.22218,22.7875 -1.21476,34.75 0.007,11.9625 -0.15151,21.75 -0.35317,21.75 -0.20167,0 -0.58132,-0.34732 -0.84368,-0.77183 z m -5.21245,-46.7996 c 2.04242,-2.04242 2.30112,-21.57809 0.30765,-23.23252 -1.72539,-1.43195 -13.4137,-1.91857 -14.71944,-0.61283 -0.68929,0.68929 -0.81759,4.60947 -0.37293,11.39465 0.80561,12.29298 1.8889,14.02213 8.78472,14.02213 2.69264,0 5.04455,-0.61598 6,-1.57143 z m -18.34962,39.9881 c 0.048,-1.16495 0.28494,-1.4019 0.60416,-0.60417 0.28887,0.72187 0.25335,1.58438 -0.0789,1.91667 -0.3323,0.33229 -0.56864,-0.25834 -0.52522,-1.3125 z m 0.15017,-9.63448 c 0.19292,-4.85784 0.81041,-8.19294 1.66635,-9 1.14246,-1.07721 1.2566,-0.10372 0.71393,6.08924 -0.92711,10.58025 -2.77457,12.83944 -2.38028,2.91076 z"
         style="fill:none;stroke:#000000;stroke-opacity:1;stroke-width:0.89562909000000002;stroke-miterlimit:4;stroke-dasharray:none" />
      <path
         inkscape:connector-curvature="0"
         style="fill:none;stroke:#000000;stroke-opacity:1;stroke-width:0.89562909000000002;stroke-miterlimit:4;stroke-dasharray:none"
         d="M 71.78125,278.4375 69.8125,283.40625 69.46875,349 l -1.333204,3.99981 -25.96875,2.33378 -2.979296,-74.92734 -1,75.25 -9.65625,0 L 24.875,348 l 1.96875,14.65625 12.34375,0.96875 7.65625,67.9375 -11.96875,138.59375 -0.03125,0 c -0.489569,0.20417 -0.954366,0.42685 -1.375,0.65625 -2.53935,1.3849 -3.83915,1.51175 -6.9375,0.65625 -3.2296,-0.89173 -4.44455,-0.72875 -8.09375,1.09375 -3.16333,1.5798 -5.22123,1.95488 -7.8125,1.46875 -3.18376,-0.59728 -4.00152,-0.2194 -8.625,3.9375 -3.0045,2.70131 -6.83736,5.0626 -9.28125,5.71875 -4.42039,1.18681 -19.14374,8.21881 -21.65625,10.34375 -0.825,0.69773 -3.41609,2.31278 -5.75,3.59375 -4.21861,2.31539 -4.25666,2.31204 -6.5,0.375 -4.5132,-3.89698 -8.714,-6.40625 -10.71875,-6.40625 -1.381,0 -3.03466,1.62229 -5.09375,4.96875 -3.99362,6.49046 -7.12859,7.22471 -15.1875,3.53125 -5.51337,-2.52682 -5.75,-2.80069 -5.75,-6.40625 0,-4.8221 -6.19713,-12.09375 -10.3125,-12.09375 -3.10503,0 -5.63118,4.06521 -5.75,9.21875 -0.10694,4.63819 -2.37864,10.32922 -4.03125,10.09375 -0.76264,-0.10866 -3.43125,-0.72383 -5.90625,-1.34375 -5.09393,-1.27587 -11.3996,-0.56768 -14.75,1.625 -1.54856,1.01346 -2.80798,1.16914 -4,0.53125 -0.9569,-0.51207 -3.8875,-1.23327 -6.5,-1.625 l -4.75,-0.71875 0,32.625 0,32.59375 62.25,0 62.25,-0.0312 2.40625,-2.53125 c 3.0007,-3.1626 6.72446,-2.98353 6.375,0.3125 l -0.25,2.25 48.25,0 c 26.53102,-0.008 48.66875,-0.34592 49.21875,-0.75 0.55,-0.40408 1.82075,-2.325 2.8125,-4.25 0.99176,-1.925 2.89662,-4.31857 4.25,-5.3125 2.38697,-1.75302 2.69662,-1.71548 9.96875,0.46875 6.68905,2.00911 7.69798,2.60883 9.25,5.78125 l 1.71875,3.5625 30.75,0.28125 30.75,0.25 0,-32.5 0,-32.53125 -3.25,0 c -1.7875,-0.003 -4.41784,-0.7904 -5.84375,-1.75 -11.73372,-7.8965 -11.61045,-7.86975 -32.4375,-9.25 -14.28744,-0.94686 -16.48269,-0.86167 -20,0.625 -2.58299,1.09176 -7.94037,1.83552 -15.46875,2.15625 -10.38401,0.44239 -11.9204,0.2623 -15.5,-1.65625 -2.8158,-1.50917 -5.76277,-2.125 -10.125,-2.125 -2.2159,0 -3.635032,-0.0455 -4.6875,-0.25 l -8.625,-156.125 6.333398,-67.56231 10.645898,-0.0109 0.333204,-3.98926 -6.65625,-2.6875 6,-2.65625 1,-6 -14.3125,4 -1.6875,-73.875 z M 45.5,363.3125 l 24.3125,0 -1.6875,25.96875 -4.65625,4 L 50.15625,394.25 47.5,393.28125 z m 22.3125,36.625 -3,26.9375 -1.65625,2 -10.34375,0.6875 -3.65625,-28.625 z M 51.5,437.875 l 14.3125,0.65625 2,51.59375 -3,3 -16.96875,1.34375 -1.6875,-0.34375 z m -5.34375,64.90625 21.645509,0.34375 2.010741,61.90625 -29.625,2.65625 z m 5.59375,72.3125 18.71875,0.59375 2.03125,6.84375 c -2.555253,-1.08791 -5.733074,-0.83899 -8.03125,0.96875 -3.75469,2.95344 -5.24237,2.61169 -10.625,-2.34375 -3.89322,-3.58422 -4.49287,-4.54632 -3.34375,-5.5 0.224281,-0.18614 0.668075,-0.3795 1.25,-0.5625 z m -5.625,13.8125 c 0.398879,-0.0573 0.728111,0.0719 1.03125,0.375 0.77778,0.77782 0.79234,1.66752 0.0625,3.03125 -1.88136,3.51534 -3.72946,4.50683 -5.1875,2.75 -1.1018,-1.32759 -0.903,-1.97201 1.34375,-4.21875 1.213138,-1.21314 2.085202,-1.84197 2.75,-1.9375 z m 28.46875,29.78125 c 2.486344,-0.003 3.577667,4.60616 0.65625,7.25 -1.95477,1.76904 -3.77167,2.13528 -4.53125,0.90625 -0.79189,-1.28129 0.4846,-6.10669 1.9375,-7.3125 0.689381,-0.57214 1.363728,-0.84306 1.9375,-0.84375 z m -158.3125,9.96875 c 1.315027,0.008 2.09518,1.59933 1.375,4.46875 -0.81055,3.22949 -3.96114,4.92952 -5.5625,3 -0.93459,-1.12611 -0.82082,-2.07408 0.59375,-4.46875 1.204442,-2.03896 2.570951,-3.00617 3.59375,-3 z m 88,11.09375 c 0.4538409,-0.053 0.9027025,0.12388 1.46875,0.46875 2.75394,1.67789 2.73608,4.04516 -0.0625,6.84375 -1.38785,1.38785 -2.875,2.51215 -3.3125,2.46875 -3.95955,-0.39298 -4.29996,-3.20528 -0.875,-7.4375 1.2603688,-1.55742 2.0248485,-2.25534 2.78125,-2.34375 z m -29.3125,1.03125 c 0.150891,-0.007 0.290719,-0.021 0.4375,0 2.76263,0.39559 3.32337,3.44254 1.09375,5.90625 -2.25094,2.48726 -6.4375,2.56042 -6.4375,0.125 0,-2.80295 2.642892,-5.92651 4.90625,-6.03125 z m -47.59375,3.9375 c 2.543273,-0.0534 3.209988,2.43138 1.28125,5.375 -1.79868,2.74512 -3.76308,3.19865 -5.40625,1.21875 -1.5424,-1.85848 0.80464,-6.13074 3.59375,-6.53125 0.186089,-0.0267 0.361698,-0.0589 0.53125,-0.0625 z m 105,3.46875 c 0.98884,0.0285 1.041607,1.37367 0.09375,3.84375 -0.33384,0.86999 -1.23384,1.5625 -2,1.5625 -2.12083,0 -1.67445,-3.7861 0.59375,-5 0.534845,-0.28624 0.982887,-0.41574 1.3125,-0.40625 z m -42.21875,0.40625 c 1.22198,0 1.90037,0.51682 1.65625,1.25 -0.63003,1.89219 -3.75,2.18163 -3.75,0.34375 0,-0.92763 0.86542,-1.59375 2.09375,-1.59375 z m 90.96875,0 c 1.64363,0 2.1955,2.70368 1,4.9375 -1.1891,2.22185 -3.53501,2.74432 -4.59375,1.03125 -0.75194,-1.21667 2.11017,-5.96875 3.59375,-5.96875 z M 52.3125,648.75 c 2.249162,-0.0173 2.385628,2.48673 0.1875,5.625 -1.78274,2.54521 -2.73603,2.76173 -4.25,0.9375 -1.54126,-1.85709 0.80823,-6.13119 3.59375,-6.53125 0.168631,-0.0242 0.318806,-0.0301 0.46875,-0.0312 z m 109.25,6.46875 c 0.30677,-0.0519 0.59377,0.0625 0.875,0.34375 0.74995,0.74995 0.45472,1.63902 -0.96875,3.0625 -2.60949,2.60949 -3.75345,1.46554 -1.6875,-1.6875 0.70436,-1.07499 1.26997,-1.63224 1.78125,-1.71875 z"
         id="path4081"
         sodipodi:nodetypes="ccccccccccccccsscssssssssssssssssccccccccccsssscccccccsssssscccccccccccccccccccccccccccccccccccccccssscccssscssssscsssccsscscccssccsscccssscsssssssscsscccccssc" />
      <path
         inkscape:connector-curvature="0"
         style="fill:none;fill-opacity:1;stroke:#000000;stroke-opacity:1;stroke-width:0.89562909000000002;stroke-miterlimit:4;stroke-dasharray:none"
         d="m -134.6875,178.84375 0,484.78125 320.71875,0 0,-484.78125 -320.71875,0 z m 11.28125,12.65625 298.15625,0 0,455.03125 -298.15625,0 0,-455.03125 z"
         id="path4083" />
    </g>
  </g>
</svg>
